<?xml version="1.0" standalone="no"?>
<!DOCTYPE svg PUBLIC "-//W3C//DTD SVG 20010904//EN"
 "http://www.w3.org/TR/2001/REC-SVG-20010904/DTD/svg10.dtd">
<svg version="1.0" xmlns="http://www.w3.org/2000/svg"
 width="1600.000000pt" height="899.000000pt" viewBox="0 0 1600.000000 899.000000"
 preserveAspectRatio="xMidYMid meet">

<g transform="translate(0.000000,899.000000) scale(0.100000,-0.100000)"
fill="#000000" stroke="none">
<path d="M7790 7409 c-131 -12 -309 -57 -460 -116 -421 -165 -770 -491 -975
-913 -52 -106 -87 -201 -94 -255 -4 -28 -10 -56 -14 -62 -4 -6 0 -13 8 -17 12
-4 15 4 15 39 l0 45 43 -7 c23 -4 54 -8 69 -8 14 0 24 -4 21 -8 -3 -5 19 -8
49 -8 81 1 168 -10 168 -21 0 -5 8 -7 18 -4 9 3 31 -2 47 -10 l30 -14 -40 5
c-26 4 -35 2 -25 -3 8 -5 35 -12 60 -15 33 -5 40 -4 25 4 -16 7 -13 8 15 4 18
-3 37 -10 41 -16 3 -6 8 -10 10 -9 9 4 84 -14 127 -30 46 -18 47 -18 17 -23
-16 -2 -10 -3 15 -1 28 3 53 -1 65 -10 11 -7 38 -16 60 -20 73 -13 138 -38
123 -47 -7 -5 3 -6 25 -2 21 3 37 2 37 -4 0 -5 6 -10 13 -11 12 -1 88 -20 117
-30 10 -3 6 -7 -12 -14 -27 -9 -39 -28 -18 -28 6 0 10 4 10 9 0 17 56 19 115
4 73 -18 85 -28 27 -20 -31 4 -47 1 -59 -11 -9 -9 -37 -19 -62 -23 l-46 -6 48
-2 c58 -1 55 -21 -4 -21 -21 0 -39 -4 -39 -10 0 -6 -29 -10 -66 -10 -45 0 -70
-5 -80 -15 -9 -8 -33 -15 -55 -15 -35 0 -39 -3 -39 -25 0 -19 -5 -25 -23 -25
-13 0 -29 -6 -36 -12 -11 -10 -14 -10 -18 0 -7 18 -37 15 -50 -7 -9 -15 -20
-17 -62 -13 -49 4 -51 4 -51 -21 0 -24 -3 -25 -80 -32 -44 -4 -80 -11 -80 -16
0 -5 -36 -9 -80 -9 -64 0 -80 3 -80 15 0 11 -11 15 -40 15 -28 0 -40 -4 -40
-14 0 -9 -16 -15 -47 -19 -38 -3 -52 0 -65 14 -23 27 -138 28 -139 2 -1 -41
-18 24 -18 73 -1 33 -6 56 -16 64 -13 11 -15 5 -14 -41 1 -46 3 -49 9 -24 6
25 8 21 9 -25 0 -41 -2 -51 -10 -40 -12 17 -5 -79 14 -214 l12 -80 85 -33 c47
-19 129 -53 183 -75 l98 -42 47 16 c26 9 119 41 207 71 512 175 1151 392 1220
414 82 26 78 23 250 188 17 17 87 82 154 145 113 105 166 166 293 335 30 40
66 112 108 215 34 85 78 191 97 235 62 143 133 323 133 337 0 8 -53 46 -117
85 -381 229 -745 313 -1183 272z m250 -1434 c-7 -8 -20 -15 -29 -15 -11 1 -8
5 9 15 32 18 35 18 20 0z m-85 -54 c-3 -6 -14 -11 -23 -11 -15 1 -15 2 2 15
21 16 32 13 21 -4z m-80 -31 c-9 -14 19 -12 33 2 9 9 12 9 12 1 0 -16 -33 -25
-55 -17 -13 5 -16 4 -11 -4 4 -7 3 -12 -2 -12 -6 0 -13 7 -16 16 -3 8 -2 12 3
9 5 -3 12 -1 16 5 3 5 11 10 16 10 6 0 7 -4 4 -10z m-59 -33 c-11 -7 -31 -23
-44 -35 -16 -15 -23 -18 -19 -8 4 9 1 16 -6 17 -7 0 3 5 21 10 17 5 32 14 32
19 0 6 8 10 18 9 15 0 15 -1 -2 -12z"/>
<path d="M9270 6221 c-65 -8 -178 -62 -226 -109 -19 -18 -43 -50 -53 -70 -11
-20 -29 -48 -41 -62 -12 -14 -29 -37 -38 -52 -9 -16 -20 -28 -24 -28 -4 0 -8
-4 -8 -9 0 -16 -63 -115 -87 -136 -13 -11 -23 -25 -23 -30 0 -6 -10 -21 -23
-35 -13 -14 -26 -33 -30 -42 -3 -10 -13 -18 -22 -18 -8 0 -15 -7 -15 -15 0 -8
-9 -20 -20 -27 -11 -7 -20 -18 -20 -25 0 -7 -6 -13 -13 -13 -7 0 -18 -9 -25
-20 -7 -11 -19 -20 -27 -20 -8 0 -15 -9 -15 -20 0 -11 -6 -20 -13 -20 -7 0
-59 -45 -116 -100 -106 -101 -180 -167 -211 -185 -10 -5 -36 -23 -58 -38 -32
-23 -65 -33 -154 -48 -62 -10 -149 -21 -193 -25 -80 -6 -286 -51 -295 -64 -3
-4 -39 -24 -81 -43 -43 -20 -79 -39 -80 -44 -2 -4 -31 -21 -64 -37 -33 -16
-80 -42 -105 -59 -25 -16 -62 -36 -84 -43 -22 -8 -44 -18 -50 -23 -33 -25
-120 -36 -286 -36 -185 0 -174 -2 -279 54 -19 10 -39 24 -45 32 -6 8 -23 20
-38 28 -16 8 -28 22 -28 32 0 13 -5 16 -17 12 -12 -5 -15 -2 -10 10 4 11 1 17
-8 17 -8 0 -15 5 -15 12 0 6 -2 9 -5 7 -8 -8 34 -108 83 -202 31 -58 66 -107
103 -142 l55 -53 263 9 263 9 156 92 c86 50 177 102 202 116 25 14 81 46 125
72 l80 48 180 16 c99 8 225 18 281 22 l101 6 304 281 c270 249 325 306 364
370 6 9 80 120 165 247 l154 230 274 0 275 0 -6 33 c-7 45 -49 154 -54 141 -3
-8 -15 -9 -37 -4 -41 9 -313 10 -386 1z"/>
<path d="M6284 6106 c-3 -8 -1 -23 5 -33 9 -15 10 -13 9 15 -2 35 -6 39 -14
18z"/>
<path d="M6311 6094 c0 -11 3 -14 6 -6 3 7 2 16 -1 19 -3 4 -6 -2 -5 -13z"/>
<path d="M6480 6069 c0 -5 8 -9 18 -9 9 0 26 -3 37 -6 11 -3 28 1 38 8 16 12
11 14 -37 14 -31 1 -56 -3 -56 -7z"/>
<path d="M6493 6033 c9 -2 23 -2 30 0 6 3 -1 5 -18 5 -16 0 -22 -2 -12 -5z"/>
<path d="M6231 6004 c0 -11 3 -14 6 -6 3 7 2 16 -1 19 -3 4 -6 -2 -5 -13z"/>
<path d="M6800 6000 c0 -5 12 -10 28 -9 24 0 25 1 7 9 -27 12 -35 12 -35 0z"/>
<path d="M6810 5970 c-11 -7 -7 -10 18 -10 20 0 31 4 27 10 -8 13 -26 13 -45
0z"/>
<path d="M6220 5938 c0 -23 3 -29 9 -19 8 12 4 51 -5 51 -2 0 -4 -15 -4 -32z"/>
<path d="M6877 5959 c7 -7 15 -10 18 -7 3 3 -2 9 -12 12 -14 6 -15 5 -6 -5z"/>
<path d="M7068 5903 c7 -3 16 -2 19 1 4 3 -2 6 -13 5 -11 0 -14 -3 -6 -6z"/>
<path d="M6207 5858 c-12 -101 -16 -152 -8 -123 8 30 8 30 13 5 3 -14 4 -7 3
15 -2 22 0 58 5 80 l8 40 2 -35 c3 -31 3 -32 7 -8 2 15 -2 37 -10 49 -14 19
-15 18 -20 -23z"/>
<path d="M7135 5890 c-18 -8 -17 -9 8 -9 15 -1 27 4 27 9 0 12 -8 12 -35 0z"/>
<path d="M7048 5873 c7 -3 16 -2 19 1 4 3 -2 6 -13 5 -11 0 -14 -3 -6 -6z"/>
<path d="M7435 5810 c3 -5 11 -10 16 -10 6 0 7 5 4 10 -3 6 -11 10 -16 10 -6
0 -7 -4 -4 -10z"/>
<path d="M6233 5745 c0 -22 2 -30 4 -17 2 12 2 30 0 40 -3 9 -5 -1 -4 -23z"/>
<path d="M6223 5590 c0 -25 2 -35 4 -22 2 12 2 32 0 45 -2 12 -4 2 -4 -23z"/>
<path d="M6762 3138 c-11 -29 -36 -89 -55 -133 -19 -44 -51 -120 -72 -170 -21
-49 -61 -146 -90 -215 -187 -442 -325 -771 -325 -776 0 -8 1129 -4 1133 4 2 4
-24 72 -58 152 -79 184 -282 667 -350 830 -125 301 -150 360 -157 360 -4 0
-15 -24 -26 -52z"/>
<path d="M7460 2495 l0 -665 150 0 150 0 0 265 0 265 215 0 215 0 0 30 c1 17
1 76 1 133 l1 102 -216 3 -216 2 0 130 0 130 235 0 235 0 0 135 0 135 -385 0
-385 0 0 -665z"/>
<path d="M8417 3108 c-4 -29 -9 -82 -12 -118 -3 -36 -23 -265 -45 -510 -22
-245 -42 -474 -45 -510 -3 -36 -8 -82 -11 -102 l-6 -38 154 0 154 0 13 158
c28 364 51 616 56 620 3 3 5 3 5 1 0 -3 32 -97 71 -209 39 -113 99 -285 132
-382 l62 -178 93 0 c86 0 93 1 102 23 5 12 59 168 121 347 62 179 120 343 129
365 l17 40 7 -70 c3 -38 15 -185 26 -325 11 -140 23 -285 26 -322 l7 -68 148
0 149 0 0 38 c0 20 -7 111 -16 202 -8 91 -23 262 -34 380 -35 404 -51 575 -58
640 l-7 65 -156 3 c-117 2 -159 -1 -166 -10 -5 -7 -72 -175 -148 -373 -75
-198 -139 -362 -141 -364 -2 -2 -7 -2 -10 1 -4 5 -94 233 -214 548 -16 41 -39
102 -52 135 l-24 60 -161 3 -161 2 -5 -52z"/>
<path d="M9370 1611 c-13 -25 -13 -34 0 -26 16 10 32 45 21 45 -6 0 -15 -9
-21 -19z"/>
<path d="M6639 1555 c-33 -18 -51 -60 -51 -119 0 -90 32 -136 94 -136 71 0
112 78 94 175 -14 72 -82 111 -137 80z m86 -27 c44 -39 46 -147 4 -189 -28
-28 -73 -25 -98 7 -16 21 -21 41 -21 91 0 55 4 67 25 88 30 31 56 32 90 3z"/>
<path d="M7438 1559 c-52 -19 -75 -128 -44 -204 17 -39 42 -55 89 -55 53 0 80
36 85 115 5 82 -10 123 -54 141 -38 16 -39 16 -76 3z m83 -28 c19 -15 24 -30
27 -87 3 -59 1 -73 -18 -96 -32 -41 -83 -39 -111 5 -31 49 -23 141 15 174 33
28 56 29 87 4z"/>
<path d="M7851 1556 c-37 -20 -50 -55 -51 -129 0 -63 3 -71 29 -98 32 -31 75
-38 113 -18 16 9 23 8 29 -2 5 -9 9 14 9 59 l0 72 -45 0 c-25 0 -45 -4 -45
-10 0 -5 16 -10 35 -10 33 0 35 -2 35 -33 0 -41 -26 -67 -66 -67 -35 0 -47 8
-63 37 -15 29 -14 122 2 152 28 55 112 49 123 -9 7 -33 24 -41 24 -11 0 33
-11 51 -41 66 -34 18 -57 18 -88 1z"/>
<path d="M6220 1550 c0 -5 16 -10 35 -10 l35 0 0 -114 c0 -66 4 -117 10 -121
6 -4 10 37 10 114 l0 121 34 0 c19 0 38 5 41 10 4 6 -25 10 -79 10 -51 0 -86
-4 -86 -10z"/>
<path d="M7010 1436 c0 -124 16 -185 22 -84 l3 53 46 5 c63 8 79 23 79 76 0
59 -18 74 -91 74 l-59 0 0 -124z m114 98 c21 -8 22 -77 2 -93 -8 -7 -32 -11
-53 -9 -36 3 -38 5 -41 42 -2 21 -1 44 2 52 6 14 61 19 90 8z"/>
<path d="M8220 1436 c0 -73 4 -127 10 -131 6 -4 10 15 10 49 l0 56 41 0 c39 0
41 -2 65 -55 14 -30 30 -55 35 -55 12 0 12 0 -15 62 -23 53 -24 54 -5 77 23
28 24 69 3 99 -13 19 -24 22 -80 22 l-64 0 0 -124z m128 92 c7 -7 12 -24 12
-39 0 -36 -33 -59 -82 -59 l-38 0 0 55 0 55 48 0 c26 0 53 -5 60 -12z"/>
<path d="M8635 1444 c-20 -63 -34 -123 -32 -132 4 -19 6 -17 26 41 9 24 16 27
55 27 44 0 46 -1 57 -40 12 -38 37 -60 26 -22 -42 153 -73 242 -83 242 -8 0
-28 -50 -49 -116z m79 -16 c6 -27 5 -28 -29 -28 -38 0 -44 15 -26 62 5 13 12
32 16 43 6 17 9 15 20 -15 6 -19 15 -47 19 -62z"/>
<path d="M8990 1430 c0 -80 4 -130 10 -130 6 0 10 28 10 65 l0 65 51 0 c31 0
48 4 44 10 -3 6 -26 10 -51 10 l-44 0 0 45 0 45 55 0 c30 0 55 5 55 10 0 6
-28 10 -65 10 l-65 0 0 -130z"/>
<path d="M9350 1436 c0 -73 4 -127 10 -131 6 -4 10 40 10 124 0 81 -4 131 -10
131 -6 0 -10 -48 -10 -124z"/>
<path d="M9665 1548 c-21 -56 -73 -233 -70 -236 9 -9 24 10 30 38 6 28 9 30
55 30 47 0 49 -1 55 -32 9 -41 14 -50 25 -43 4 3 1 26 -7 52 -8 27 -25 81 -37
122 -20 71 -40 98 -51 69z m32 -76 c21 -61 18 -72 -23 -72 -29 0 -35 3 -30 16
4 9 11 36 17 61 13 49 17 49 36 -5z"/>
</g>
</svg>