<?xml version="1.0" encoding="UTF-8"?>
<!DOCTYPE svg PUBLIC "-//W3C//DTD SVG 1.1//EN" "http://www.w3.org/Graphics/SVG/1.1/DTD/svg11.dtd">
<svg xmlns="http://www.w3.org/2000/svg" version="1.1" width="485px" height="695px" style="shape-rendering:geometricPrecision; text-rendering:geometricPrecision; image-rendering:optimizeQuality; fill-rule:evenodd; clip-rule:evenodd" xmlns:xlink="http://www.w3.org/1999/xlink">
<rect x="0" y="0" width="485" height="695" fill="#fdfeff"/>
<g><path fill="#fdfeff" stroke="#fdfeff" stroke-width="0.5" d="M 0,0 c 161.67,0 323.33,0 485,0 c 0,231.67 0,463.33 0,695 c -161.67,0 -323.33,0 -485,0 c 0,-231.67 0,-463.33 0,-695 Z M 112.26,85.01 c -0.09,-2.33 -2.96,1.93 -3.64,2.11 c -2.16,2.43 -4.41,4.78 -6.76,7.02 c -0.42,0.58 -0.61,1.23 -0.56,1.94 c -81.07,91.33 -69.76,228.14 25.77,304.14 c -0.04,0.34 0.07,0.63 0.32,0.87 c 1.41,1.08 4.49,4.44 6.4,3.83 c 59.4,44.98 142.02,51.31 209.49,20.85 c 16.76,-8.31 38.59,-21.58 51.55,-34.64 c 2.03,-0.09 13.27,-10.8 13.12,-12.9 c 20.83,-21.57 36.58,-48.47 45.76,-76.99 c 20.44,-58.21 9.93,-133.46 -26.72,-183.28 c -0.01,-1.49 -0.42,-2.9 -1.22,-4.2 c -2.43,-2.96 -4.77,-5.98 -7.04,-9.07 c -0.74,-1.01 -1.65,-1.8 -2.74,-2.37 c -0.59,-0.26 -1.14,-0.6 -1.63,-1.02 c -79.61,-91.05 -213.02,-98.38 -302.1,-16.29 Z M 78.27,611.97 c 0.04,1.01 1.6,0.76 2.22,0.81 c 36.33,-0.04 72.66,-0.04 109,0.01 c 1.93,0.11 2.5,-0.71 1.72,-2.45 c -18.53,-44.09 -37.18,-88.12 -55.95,-132.07 c -0.77,-0.06 -1.26,0.29 -1.46,1.07 c -18.65,44.15 -37.17,88.36 -55.53,132.63 Z M 201.95,484 c -0.03,43.14 0.02,86.28 0.14,129.42 c 0.6,0.76 1.39,1.07 2.38,0.94 c 8.7,-0.04 17.41,-0.05 26.11,-0.03 c 1.04,-0.13 1.61,-0.71 1.69,-1.77 c -0.01,-16.94 0.01,-33.87 0.08,-50.81 c 0.26,-0.43 0.65,-0.65 1.16,-0.66 c 13.33,-0.1 26.66,-0.13 39.99,-0.09 c 1.47,-0.14 2.12,-0.97 1.96,-2.47 c 0,-7.28 0,-14.55 -0.01,-21.83 c 0.16,-2.1 -0.82,-2.96 -2.95,-2.58 c -13.28,0.11 -26.55,0.01 -39.81,-0.29 c -0.4,-0.36 -0.56,-0.81 -0.49,-1.35 c 0.07,-7.92 0.1,-15.83 0.1,-23.75 c 0.62,-0.54 1.35,-0.75 2.19,-0.63 c 14.63,0.05 29.24,-0.03 43.85,-0.24 c 0.55,-0.67 0.77,-1.45 0.66,-2.35 c 0.03,-7.66 0.01,-15.32 -0.07,-22.98 c -0.38,-1.13 -1.19,-1.57 -2.42,-1.31 c -24.32,0 -48.64,0 -72.97,0 c -1.69,-0.12 -1.57,1.61 -1.59,2.78 Z M 286.25,612.92 c 0.32,1.04 1.06,1.51 2.22,1.42 c 8.69,-0.01 17.37,-0.02 26.06,-0.02 c 0.91,0.02 1.63,-0.34 2.14,-1.07 c 2.18,-24.87 3.89,-49.91 6.01,-74.77 c 0.01,-1.41 1.29,-1.97 1.71,-0.56 c 8.61,24.78 17.25,49.55 25.94,74.3 c 0.49,0.78 1.2,1.19 2.14,1.23 c 4.68,0.02 9.37,0.03 14.06,0.04 c 1.28,0.1 2.26,-0.38 2.94,-1.44 c 8.61,-24.46 17.18,-48.94 25.69,-73.43 c 0.41,-1.61 1.78,-2.55 1.89,-0.15 c 0.02,3.04 0.31,6.05 0.87,9.03 c 1.46,21.69 3.14,43.36 5.04,65.01 c 0.23,1.38 1.07,1.99 2.52,1.83 c 8.7,-0.02 17.4,-0.02 26.1,0.01 c 1.11,-0.07 1.7,-0.66 1.77,-1.76 c -3.78,-43.6 -7.69,-87.17 -11.74,-130.74 c -0.95,-0.56 -1.98,-0.77 -3.11,-0.65 c -8.99,0.03 -17.99,0.03 -26.99,0 c -0.82,-0.06 -1.58,0.12 -2.27,0.56 c -9.09,23.25 -18.08,46.55 -26.96,69.91 c -0.54,1.2 -1.04,2.42 -1.48,3.66 c -1.62,3.16 -3.44,-5 -4.08,-5.66 c -8.63,-22.63 -17.35,-45.22 -26.15,-67.78 c -0.6,-0.5 -1.29,-0.72 -2.09,-0.67 c -9.9,-0.05 -19.8,0 -29.7,0.15 c -0.43,0.26 -0.67,0.64 -0.71,1.16 c -2.16,20.67 -3.67,41.41 -5.69,62.09 c -0.15,0.77 -0.47,1.45 -0.95,2.07 c 0.33,2.16 0.43,4.34 0.3,6.52 c -1.91,19.9 -3.73,39.8 -5.48,59.71 Z M 393.42,636.14 c -1.01,0.46 -1.49,1.23 -1.45,2.31 c 0.86,1.45 2.13,-0.57 2.56,-1.27 c 0.43,-0.79 2.1,-2.3 0.85,-3.08 c -1.57,-0.2 -2.22,0.49 -1.96,2.04 Z M 115.08,648.04 c -0.91,5.12 -0.99,12.15 2.5,16.37 c 5.91,5.99 15.14,2.24 16.14,-6.06 c 1.01,-7.22 0.31,-17.93 -9.24,-18.24 c -5.2,0.17 -8.33,2.81 -9.4,7.93 Z M 198.91,666.05 c 4.22,2.08 8.05,1.53 11.47,-1.66 c 3.73,-5 3.41,-12.82 1.79,-18.55 c -3.81,-9.34 -16.68,-7.17 -18.08,3.67 c -0.3,5.65 -0.77,13.13 4.82,16.54 Z M 235.64,654 c -0.47,6.65 2.13,13.48 9.86,13.19 c 2.33,-0.3 4.61,-0.83 6.83,-1.58 c 0.73,0.83 1.43,2.38 1.88,-0.04 c -0.34,-2.86 1.07,-10.06 -1.13,-12.04 c -2.44,-0.74 -4.92,-0.83 -7.43,-0.26 c -0.92,0.55 -1.02,1.21 -0.3,1.99 c 1.69,0.02 3.38,0.08 5.07,0.2 c 2.25,1.52 1.55,4.31 0.81,6.48 c -4.84,6.34 -12.35,2.81 -13.19,-4.44 c -0.83,-7.05 0.5,-17.95 10.55,-14.62 c 2.38,1.42 3.62,3.55 3.73,6.36 c 0.47,0.7 0.99,0.74 1.56,0.14 c 1.94,-12.88 -20.04,-13.51 -18.24,4.62 Z M 78.11,641.99 c 0.73,2.01 5.7,-0.43 6.9,1.54 c 0.14,6.99 0.18,13.97 0.14,20.97 c -0.26,2.6 2.32,3.22 2.13,0.02 c -0.02,-6.92 0,-13.85 0.07,-20.78 c 0.95,-2.31 6.5,0.56 7.25,-2.18 c -0.52,-0.62 -1.22,-0.88 -2.08,-0.79 c -3.07,0.18 -11.53,-0.33 -13.94,0.27 c -0.34,0.23 -0.5,0.55 -0.47,0.95 Z M 157.04,646 c 0.03,5.17 0.04,10.33 0.02,15.5 c 0.36,1.76 0.73,3.52 1.13,5.25 c 0.87,-3.24 1.6,-6.51 2.18,-9.81 c 2.28,-0.74 4.62,-1.08 7.04,-1.02 c 2.38,-0.59 3.96,-2.05 4.72,-4.38 c 2.8,-10.41 -5.02,-12.27 -13.48,-10.56 c -1.97,0.77 -1.52,3.34 -1.61,5.02 Z M 292.36,653.33 c 1.94,-3.04 2.22,-6.23 0.85,-9.58 c -2.73,-4.31 -8.36,-2.94 -12.68,-3.01 c -1.88,0.52 -2.73,1.77 -2.57,3.75 c 0.45,6.28 -0.96,16.57 1.1,22.22 c 0.81,-3.17 1.37,-6.39 1.68,-9.65 c 0.76,-2.46 5.6,-1.77 7.13,-0.37 c 1.71,3.04 3.32,6.13 4.83,9.27 c 1.51,1.32 2.15,0.99 1.94,-0.99 c -1.35,-3.37 -3.55,-6.26 -3.56,-10.02 c 0.31,-0.63 0.73,-1.17 1.28,-1.62 Z M 318.7,654.89 c -1.38,3.73 -2.47,7.53 -3.26,11.42 c 0.51,0.86 1.54,0.31 2.1,-0.21 c 0.69,-2.27 1.48,-4.5 2.36,-6.7 c 1.59,-0.77 6.51,-0.53 8.39,-0.19 c 1.34,1.27 1.81,5.37 2.88,7.11 c 1.34,1.38 2.11,-0.42 1.69,-1.68 c -1.37,-4.63 -2.8,-9.24 -4.28,-13.84 c -0.93,-3.02 -1.84,-6.06 -2.75,-9.1 c -1.13,-1.96 -3.23,-0.63 -3.5,1.22 c -1.28,3.97 -2.5,7.96 -3.63,11.97 Z M 354.87,645 c 0.47,7.03 -0.91,15.04 1.15,21.72 c 1.53,-3.73 0.56,-8.05 1.29,-11.95 c 2.71,-0.2 5.45,-0.29 8.22,-0.27 c 0.93,0.02 1.66,-0.33 2.19,-1.05 c -0.24,-0.61 -0.7,-0.94 -1.38,-0.98 c -2.85,-0.1 -5.67,-0.37 -8.47,-0.82 c -1.69,-2 -1.3,-5.48 -0.48,-7.82 c 2.46,-1.73 7.03,-0.45 9.97,-1.08 c 1.41,-0.57 0.65,-2.14 -0.77,-2.11 c -3.33,-0.11 -6.65,0 -9.96,0.33 c -1.45,0.92 -2.04,2.27 -1.76,4.03 Z M 390.94,664 c -0.15,1.02 0.12,1.9 0.82,2.62 c 0.78,0.06 1.2,-0.31 1.24,-1.12 c 0.06,-7.67 0.1,-15.34 0.12,-23.02 c 0.04,-2.04 -2.15,-2.14 -2.19,0 c 0.02,7.17 0.02,14.35 0.01,21.52 Z M 415.13,665.94 c 0.41,0.81 0.98,0.92 1.7,0.35 c 1,-2.35 1.97,-4.7 2.91,-7.04 c 2.28,-0.4 6.26,-0.57 8.43,0.1 c 0.83,2.12 1.62,4.28 2.37,6.45 c 0.34,0.77 1.59,1.54 2.05,0.43 c 0.21,-4.61 -5.3,-18.26 -6.77,-23.63 c -0.55,-2.35 -3.22,-2.47 -3.72,-0.03 c -2.35,7.79 -4.67,15.58 -6.97,23.37 Z M 120.15,663.83 c -4.43,-3.39 -3.77,-10.89 -2.88,-15.72 c 1.35,-4.33 4.27,-6.22 8.74,-5.68 c 10.92,4.83 5.73,28.76 -5.86,21.4 Z M 209.86,646.02 c 1.82,3.35 1.5,7.82 1.23,11.49 c -0.21,2.51 -1.27,4.59 -3.18,6.22 c -2.11,1.49 -4.38,1.79 -6.81,0.89 c -5.51,-2.91 -4.86,-8.75 -4.76,-14.08 c 0.45,-7.98 8.89,-11.51 13.52,-4.52 Z M 159.35,647.98 c 0.04,-1.73 0.46,-3.35 1.29,-4.86 c 11.77,-4.29 13.94,12.28 1.8,11.11 c -0.88,0 -1.63,-0.32 -2.22,-0.95 c -0.63,-1.71 -0.92,-3.48 -0.87,-5.3 Z M 326.65,652.13 c 0.01,0.87 1.72,3.99 0.6,4.49 c -1.84,0.08 -3.67,0.07 -5.5,-0.02 c -0.67,-0.33 -0.95,-0.87 -0.86,-1.61 c 0.99,-3 1.87,-6.03 2.65,-9.08 c 0.23,-0.36 0.56,-0.57 0.97,-0.64 c 0.72,2.27 1.43,4.56 2.14,6.86 Z"/></g>
<g><path fill="#f7f8fa" stroke="#f7f8fa" stroke-width="0.5" d="M 291.74,644.93 c 0.02,2 0.11,3.99 0.28,5.97 c -2.69,3.12 -11.76,5.56 -12.01,-0.39 c 0.11,-2.36 -0.44,-5.08 0.85,-7.17 c 3.83,-1.15 7.77,-1.19 10.88,1.59 Z M 420.28,656.72 c 0.85,-3.89 1.93,-7.7 3.23,-11.44 c 0.38,0.05 0.67,0.25 0.87,0.59 c 1.06,3.19 1.98,6.41 2.76,9.66 c -0.02,0.59 -0.3,0.96 -0.86,1.13 c -2,0.07 -4,0.09 -6,0.06 Z"/></g>
<g><path fill="#f4ed7d" d="M 407.95,378.23 c 0.15,2.1 -11.09,12.81 -13.12,12.9 c -0.36,-0.27 -0.41,-0.59 -0.14,-0.94 c 3.74,-3.58 7.41,-7.21 11.04,-10.9 c 0.58,-0.69 1.32,-1.04 2.22,-1.06 Z"/></g>
<g><path fill="#f3ef84" d="M 127.07,400.22 c 0.96,-0.21 1.82,0.01 2.59,0.65 c 0.76,0.72 4.03,3.2 4.13,4.05 c -1.91,0.61 -4.99,-2.75 -6.4,-3.83 c -0.25,-0.24 -0.36,-0.53 -0.32,-0.87 Z"/></g>
<g><path fill="#f5e839" stroke="#f5e839" stroke-width="0.5" d="M 415.99,102.32 c -0.74,2.25 1.32,3.2 2.57,4.62 c 2.55,3.22 4.92,6.58 7.11,10.07 c 0.33,0.47 0.77,0.78 1.32,0.95 c 36.65,49.82 47.16,125.07 26.72,183.28 c -9.18,28.52 -24.93,55.42 -45.76,76.99 c -0.9,0.02 -1.64,0.37 -2.22,1.06 c -3.63,3.69 -7.3,7.32 -11.04,10.9 c -0.27,0.35 -0.22,0.67 0.14,0.94 c -12.96,13.06 -34.79,26.33 -51.55,34.64 c -67.47,30.46 -150.09,24.13 -209.49,-20.85 c -0.1,-0.85 -3.37,-3.33 -4.13,-4.05 c -0.77,-0.64 -1.63,-0.86 -2.59,-0.65 c -95.53,-76 -106.84,-212.81 -25.77,-304.14 c 0.62,-0.06 1.18,-0.28 1.67,-0.67 c 0.74,-1.28 1.74,-2.28 3,-3.02 c 1.69,-1.89 3.48,-3.7 5.36,-5.43 c 0.48,-0.56 0.79,-1.21 0.93,-1.95 c 89.08,-82.09 222.49,-74.76 302.1,16.29 c 0.49,0.42 1.04,0.76 1.63,1.02 Z M 192.7,64.79 c -1.08,-0.16 -2.14,-0.07 -3.18,0.27 c -3.93,1.75 -7.84,3.55 -11.75,5.38 c -1.05,0.15 -2.11,0.32 -3.16,0.49 c -1.08,2.59 -2.22,1.69 -4.22,3.02 c -4.86,2.71 -9.67,5.5 -14.44,8.39 c -0.67,0.74 -4.09,2.64 -3.95,3.69 c -1.24,0.07 -2.36,0.47 -3.36,1.22 c -5.08,3.89 -10.07,7.93 -14.95,12.1 c -4.06,3.9 -8.07,7.84 -12.04,11.82 c -0.89,0.73 -1.49,1.65 -1.8,2.75 c -1.53,1.6 -3.16,3.13 -4.87,4.58 c -0.8,1.07 -1.39,2.22 -1.77,3.45 c -0.91,0.05 -4.15,4.1 -4.92,4.96 c -3.53,5.12 -6.97,10.31 -10.3,15.57 c -1.71,3.33 -3.54,6.58 -5.49,9.77 c -1.13,2.4 -2.26,4.8 -3.41,7.2 c -0.33,0.98 -0.15,1.84 0.56,2.58 c -0.71,1.19 -1.24,2.46 -1.61,3.8 c -0.76,1.89 -2.3,4.09 -1.92,6.2 c -0.22,-0.05 -0.45,-0.11 -0.67,-0.16 c -0.38,-0.67 -0.86,-0.79 -1.43,-0.36 c -1.21,3.41 -2.42,6.82 -3.66,10.21 c -0.25,1.58 -1.2,3.95 0.05,5.3 c -0.14,0.66 -0.25,1.33 -0.33,2.01 c -2.59,-0.38 -4.01,11.68 -4.66,13.54 c -0.9,4.94 -1.57,9.92 -2.02,14.93 c 0.03,2.36 -0.11,4.72 -0.43,7.06 c -0.16,0.84 0.16,1.33 0.95,1.48 c -0.05,7.57 -0.13,15.13 -0.25,22.68 c -0.41,0.09 -0.66,0.35 -0.75,0.77 c 0.47,2.99 0.57,6 0.31,9.02 c 0.87,3.63 1.5,7.31 1.91,11.03 c 0.42,0.88 0.4,2.76 1.75,2.74 c 0.97,3.27 1.87,6.56 2.7,9.87 c 1.55,6.34 3.51,12.56 5.86,18.65 c 2.93,7.58 6.23,14.99 9.91,22.23 c 0.19,0.34 0.37,0.68 0.56,1.02 c 1.54,2.94 3.37,6.88 5.84,9.04 c 0.84,0.97 1.59,2 2.26,3.09 c 75.73,115.13 244.84,107.24 311.76,-12.9 c 20.95,-39.33 27.96,-88.29 16.02,-131.38 c -0.01,-0.62 -0.03,-1.24 -0.04,-1.86 c -1.3,-4.77 -2.78,-9.48 -4.45,-14.14 c -0.32,-1.06 -0.72,-2.1 -1.19,-3.1 c -11.78,-32.44 -33.79,-60.7 -60.93,-81.79 c -1.05,-0.85 -2.16,-1.6 -3.35,-2.25 c -1.59,-1.19 -3.17,-2.4 -4.74,-3.62 c 1.76,-0.4 -1.58,-2.2 -1.78,-2.78 c -1.77,-0.97 -3.48,-2.03 -5.14,-3.17 c -0.89,-0.21 -1.28,0.16 -1.19,1.09 c -0.44,-0.04 -0.88,-0.08 -1.32,-0.12 c -0.06,-1 -0.54,-1.71 -1.43,-2.13 c -0.44,-0.8 -1.07,-1.42 -1.89,-1.85 c -2.35,-1.45 -4.83,-2.64 -7.42,-3.58 c -2.22,-2.05 -5.78,-2.95 -8.49,-4.36 c -0.76,-0.37 -1.34,-0.21 -1.73,0.48 c -1.03,-0.19 -1.89,-0.65 -2.59,-1.39 c 0.5,-0.34 0.56,-0.73 0.2,-1.16 c -6.21,-2.2 -12.47,-4.27 -18.76,-6.22 c -0.98,-0.21 -1.84,0.02 -2.58,0.69 c -7.58,-1.71 -15.16,-3.34 -22.76,-4.91 c 0.07,-1.87 -2.64,-0.76 -3.73,-1.32 c -0.85,-0.29 -1.71,-0.58 -2.57,-0.86 c -12.41,-0.42 -24.82,-0.47 -37.23,-0.14 c -3.95,1.69 -9.77,2.07 -14.06,1.97 c -0.74,0.61 -1.55,1.12 -2.44,1.53 c -2.39,0.29 -4.77,0.55 -7.16,0.8 c -0.63,0.38 -1.26,0.74 -1.89,1.08 c -2.24,0.38 -4.47,0.76 -6.7,1.12 c -3.68,1.33 -7.36,2.69 -11.05,4.09 c -0.35,0.16 -0.58,0.42 -0.69,0.79 Z"/></g>
<g><path fill="#d2df5d" d="M 73.67,248.72 c 0.87,5.92 1.67,11.85 2.4,17.8 c 0.07,0.94 0.34,1.81 0.81,2.62 c -0.14,1.05 -0.14,2.09 0.01,3.14 c -1.35,0.02 -1.33,-1.86 -1.75,-2.74 c -0.41,-3.72 -1.04,-7.4 -1.91,-11.03 c 0.26,-3.02 0.16,-6.03 -0.31,-9.02 c 0.09,-0.42 0.34,-0.68 0.75,-0.77 Z"/></g>
<g><path fill="#3f8f5d" d="M 74.21,222.89 c 0.62,0.32 0.89,0.84 0.81,1.57 c -0.48,8.34 -0.46,16.68 0.06,25 c 0.19,0.45 0.53,0.65 1.01,0.62 c 0.01,0.32 0.02,0.65 0.03,0.97 c -0.52,2.38 -0.22,4.66 0.9,6.84 c -0.31,1.05 -0.28,2.09 0.1,3.13 c -0.43,1.52 -0.48,3.07 -0.13,4.63 c -0.22,1.16 -0.26,2.32 -0.11,3.49 c -0.47,-0.81 -0.74,-1.68 -0.81,-2.62 c -0.73,-5.95 -1.53,-11.88 -2.4,-17.8 c 0.12,-7.55 0.2,-15.11 0.25,-22.68 c 0.09,-1.05 0.18,-2.1 0.29,-3.15 Z M 76.88,269.14 c 0.87,0 1.48,2.97 2.06,3.68 c -0.72,-0.04 -1.4,-0.22 -2.05,-0.54 c -0.15,-1.05 -0.15,-2.09 -0.01,-3.14 Z"/></g>
<g><path fill="#48a370" d="M 77.03,201.97 c 0.49,-0.11 0.82,0.07 0.98,0.54 c -0.61,4.99 -1.29,9.98 -2.04,14.97 c -0.14,0.75 -0.58,1.14 -1.34,1.15 c 0.51,-4.9 1.11,-9.79 1.79,-14.67 c 0.15,-0.68 0.36,-1.34 0.61,-1.99 Z"/></g>
<g><path fill="#397e52" d="M 428.22,182.89 c -0.48,1.12 0.66,2.62 -0.38,3.49 c -0.53,-0.39 -0.96,-0.87 -1.3,-1.43 c -1.41,-0.86 -2.79,-0.83 -4.14,0.09 c -0.7,-0.54 -1.48,-0.98 -2.33,-1.3 c -28.7,-2.23 -51.56,-4.76 -65.26,25.08 c -0.21,1.6 0.92,3.09 -2.18,1.54 c -9.43,15.55 -20.75,31.19 -34.6,43.25 c -7.95,6.12 -37.15,38.01 -45.93,36.42 c -0.25,-0.75 -0.07,-1.36 0.56,-1.83 c 3.44,-1.83 6.67,-3.97 9.7,-6.43 c 15.89,-13.7 31.27,-27.95 46.13,-42.75 c 10.51,-12.53 20.82,-28.37 29.94,-42.1 c 3.11,-4.25 6.76,-7.97 10.93,-11.17 c 14.75,-9.17 39.35,-6.47 55.91,-4.26 c 0.49,0.28 0.88,0.67 1.17,1.17 c 0.3,-0.85 0.68,-1.65 1.13,-2.42 c 0.49,0.8 0.71,1.68 0.65,2.65 Z M 272.1,290.03 c 0.19,2.31 -2.55,2.66 -4.09,3.57 c -6.58,1.62 -13.24,2.87 -19.97,3.76 c -15.07,0.45 -30.15,2.09 -43.48,9.75 c -5.69,3.27 -11.35,6.6 -16.98,9.97 c -11.11,5.5 -20.67,12.27 -33.2,14.39 c -12.74,2.48 -25.56,2.94 -38.45,1.37 c -4.92,-0.42 -9.12,-2.36 -12.62,-5.82 c -1.21,-3.41 -0.15,-0.76 -2.67,-1.14 c -0.54,-0.38 -1.12,-0.67 -1.74,-0.87 c -0.92,-0.57 -1.91,-0.89 -2.98,-0.96 c -0.19,-0.34 -0.37,-0.68 -0.56,-1.02 c 0.21,-1.35 0.97,-2.25 2.26,-2.72 c 0.42,0.74 0.69,1.54 0.8,2.41 c 1.92,-1.07 2.55,-0.54 3.91,0.88 c 2.55,-0.11 0.41,0.18 1.74,1.86 c 3.82,1.15 7.64,2.33 11.44,3.57 c 14.13,3 38.26,1.45 51.59,-4.77 c 20.17,-9.4 38.05,-24.49 60.44,-28.25 c 14.88,-1.11 30.06,-2.46 44.56,-5.98 Z"/></g>
<g><path fill="#4b6948" d="M 83.32,177.89 c 1.37,1.68 -0.51,3.38 -0.31,5.28 c -0.32,0.32 -0.71,0.56 -1.15,0.7 c 0.01,-2.1 0.5,-4.09 1.46,-5.98 Z"/></g>
<g><path fill="#408858" d="M 427.31,175.9 c 1.67,4.66 3.15,9.37 4.45,14.14 c -0.58,-0.06 -1.05,-0.3 -1.42,-0.71 c -0.67,-1.85 -1.12,-3.75 -1.34,-5.7 c -0.17,-0.35 -0.43,-0.6 -0.78,-0.74 c 0.06,-0.97 -0.16,-1.85 -0.65,-2.65 c -0.45,0.77 -0.83,1.57 -1.13,2.42 c -0.29,-0.5 -0.68,-0.89 -1.17,-1.17 c -16.56,-2.21 -41.16,-4.91 -55.91,4.26 c -4.17,3.2 -7.82,6.92 -10.93,11.17 c -9.12,13.73 -19.43,29.57 -29.94,42.1 c -14.86,14.8 -30.24,29.05 -46.13,42.75 c -3.03,2.46 -6.26,4.6 -9.7,6.43 c -0.63,0.47 -0.81,1.08 -0.56,1.83 c -14.5,3.52 -29.68,4.87 -44.56,5.98 c -22.39,3.76 -40.27,18.85 -60.44,28.25 c -13.33,6.22 -37.46,7.77 -51.59,4.77 c -3.8,-1.24 -7.62,-2.42 -11.44,-3.57 c -1.33,-1.68 0.81,-1.97 -1.74,-1.86 c -1.36,-1.42 -1.99,-1.95 -3.91,-0.88 c -0.11,-0.87 -0.38,-1.67 -0.8,-2.41 c -1.29,0.47 -2.05,1.37 -2.26,2.72 c -3.68,-7.24 -6.98,-14.65 -9.91,-22.23 c 3.12,0.15 1.63,5.4 6.24,5.55 c -0.8,0.82 -0.94,1.72 -0.39,2.72 c 0.61,1.09 1.21,2.2 1.78,3.33 c 1.06,0.39 1.83,1.1 2.31,2.13 c -0.7,0.42 -0.88,0.98 -0.54,1.7 c 1.44,0.18 2.8,0.65 4.07,1.42 c 3.35,2.27 6.79,4.36 10.34,6.29 c 15.85,6.52 41.78,3.76 57.34,-2.89 c 20.51,-9.77 38.61,-25.38 61.91,-28.02 c 15.55,-3.18 35.16,-0.58 48.22,-10.86 c 16.72,-13.12 31.89,-28.21 47.15,-42.98 c 13.01,-13.7 22.02,-29.72 32.86,-45.01 c 1.32,-1.71 9.18,-10.98 10.73,-10.53 c 4.06,-3.65 13.71,-6.91 19.08,-5.56 c 1.36,-1.3 3,-1.91 4.91,-1.81 c 7.94,0.05 20.24,-0.47 27.93,1.15 c 0.64,-0.23 1.29,-0.37 1.96,-0.42 c 1.28,0.82 2.62,1.48 4,1.99 c 0.36,-0.75 0.61,-1.55 0.74,-2.39 c 0.3,-0.43 0.7,-0.67 1.22,-0.71 Z"/></g>
<g><path fill="#44925f" d="M 424.99,172.04 c 0.27,0.41 0.65,0.66 1.13,0.76 c 0.47,1 0.87,2.04 1.19,3.1 c -0.52,0.04 -0.92,0.28 -1.22,0.71 c -0.13,0.84 -0.38,1.64 -0.74,2.39 c -1.38,-0.51 -2.72,-1.17 -4,-1.99 c -0.67,0.05 -1.32,0.19 -1.96,0.42 c -7.69,-1.62 -19.99,-1.1 -27.93,-1.15 c -1.91,-0.1 -3.55,0.51 -4.91,1.81 c -5.37,-1.35 -15.02,1.91 -19.08,5.56 c -1.55,-0.45 -9.41,8.82 -10.73,10.53 c -10.84,15.29 -19.85,31.31 -32.86,45.01 c -15.26,14.77 -30.43,29.86 -47.15,42.98 c -13.06,10.28 -32.67,7.68 -48.22,10.86 c -23.3,2.64 -41.4,18.25 -61.91,28.02 c -15.56,6.65 -41.49,9.41 -57.34,2.89 c -3.55,-1.93 -6.99,-4.02 -10.34,-6.29 c -1.27,-0.77 -2.63,-1.24 -4.07,-1.42 c -0.34,-0.72 -0.16,-1.28 0.54,-1.7 c -0.48,-1.03 -1.25,-1.74 -2.31,-2.13 c -0.57,-1.13 -1.17,-2.24 -1.78,-3.33 c 0.7,0.03 1.23,-0.27 1.59,-0.88 c 9.53,8.09 16.52,14.45 29.59,16.1 c 14.39,0.6 30.04,0.71 43.23,-5.92 c 12.14,-6.53 24.21,-13.2 36.2,-20.01 c 6.91,-3.91 14.29,-6.45 22.15,-7.6 c 11.78,-1.88 23.6,-3.4 35.47,-4.56 c 10.21,-1.08 17.9,-8.55 25.74,-14.44 c 11.71,-10.94 23.38,-21.91 35.02,-32.92 c 14.04,-15.03 24.98,-33.53 36.74,-50.36 c 17.17,-21.12 42.91,-13.51 66.31,-15.15 c 0.4,-0.63 0.95,-1.06 1.65,-1.29 Z"/></g>
<g><path fill="#4ea66a" stroke="#4ea66a" stroke-width="0.5" d="M 419.83,167.88 c -1.86,1.78 -3.96,1.58 -6.38,1.93 c -8.61,0.02 -17.19,0.18 -25.75,0.47 c -0.42,0.49 -0.9,0.91 -1.44,1.24 c -2.79,0.23 -5.59,0.45 -8.39,0.66 c -18.84,2.37 -35.71,31.39 -44.87,46.43 c -14.99,19.53 -34.44,35.82 -52.28,52.68 c -0.51,0.82 -0.96,1.67 -1.33,2.55 c -3.03,0.29 -6.14,3.58 -8.94,4.86 c -11.68,7.34 -26.8,5.26 -39.95,7.15 c -24.02,2.74 -46.76,20.25 -68.32,30.46 c -17.83,5.51 -43.54,9.82 -58.99,-3.86 c -4.11,-3.63 -8.17,-7.3 -12.2,-11.01 c -1.03,-0.61 -1.5,0.42 -2.16,-0.74 c 1.39,-3.04 0.93,-3.37 -1.39,-0.97 c -0.57,-0.67 -0.32,-2.21 -1.46,-1.2 c -0.24,0.74 -0.41,1.5 -0.53,2.27 c -2.35,-6.09 -4.31,-12.31 -5.86,-18.65 c 1.64,-2.78 3.77,3.28 4.18,4.3 c 0.37,1.75 0.74,3.48 1.13,5.17 c 1.38,0.69 1.72,-3.12 1.25,-3.92 c 6.16,7.99 22.96,22.46 32.29,26 c 28.16,9.41 57.65,-12.52 81.08,-25.47 c 16.2,-6.64 38.37,-10.37 55.94,-10.21 c 15.76,-1.65 48.07,-36.65 60.56,-48.5 c 3.94,-5.06 8.04,-9.98 12.32,-14.75 c 7.51,-12.52 16.21,-23.67 23.19,-36.41 c 0.25,0.78 0.56,1.53 0.93,2.24 c 1.58,-2.25 3.33,-4.39 5.26,-6.41 c 8.32,-9.11 18.19,-9.19 29.65,-9.84 c 7.71,-1.67 23.13,-5.08 29.46,0.36 c 0.37,3.85 2.16,0.69 3,3.17 Z"/></g>
<g><path fill="#177c76" d="M 322.91,158.68 c 0.54,0.28 0.75,0.71 0.64,1.28 c -5.41,3.69 -9.34,11.29 -13.78,16.18 c -17.07,16.22 -35.67,39.21 -57.47,48.56 c -22.56,8.04 -44.99,16.08 -67.87,23.23 c -18.5,7.59 -37.9,12.29 -56.44,19.53 c -20.63,7.24 -31.8,1.13 -50.87,-6.44 c -0.38,-1.04 -0.41,-2.08 -0.1,-3.13 c 0.59,0.51 1.05,1.11 1.38,1.81 c 1.58,0.06 3.14,0.34 4.68,0.83 c 15.85,5.71 27.67,9.76 44.54,4.04 c 18.75,-7.14 38.16,-12.16 56.79,-19.79 c 14.09,-3.91 27.91,-8.61 41.46,-14.08 c 16.37,-5.32 31.24,-9.11 44.58,-20.77 c 9.26,-8.29 18.32,-16.77 27.2,-25.43 c -1.07,-0.12 -2.01,-0.53 -2.81,-1.22 c 4.34,-2.67 10.38,-9.01 14.4,-12.59 c 0.8,-0.48 1.64,-0.83 2.53,-1.06 c -0.92,-1.32 -2.22,-1.98 -3.89,-1.98 c 3.97,-2.81 8.05,-5.45 12.23,-7.93 c 0.85,-0.56 1.78,-0.91 2.8,-1.04 Z"/></g>
<g><path fill="#789877" d="M 92.91,155.03 c 0.59,2.13 -0.87,3.16 -1.54,4.99 c -0.42,0.31 -0.83,0.65 -1.24,1.02 c 0.12,-1.85 1.49,-4.67 2.78,-6.01 Z"/></g>
<g><path fill="#578581" d="M 99.18,143.96 c 0.51,0.2 0.65,0.55 0.4,1.05 c -1.07,2.02 -2.15,4.03 -3.23,6.04 c -0.44,-0.01 -0.88,-0.01 -1.32,-0.02 c 0.97,-1.91 2.47,-5.84 4.15,-7.07 Z"/></g>
<g><path fill="#175f58" stroke="#175f58" stroke-width="0.5" d="M 348.4,132.39 c -7.45,23.4 -19.69,44.93 -37.02,62.42 c -13.15,11.94 -29.44,28.65 -42.68,39.44 c -50.82,17.59 -101.72,34.94 -152.7,52.05 c -6.62,0.05 -29.13,-11.07 -37.06,-13.48 c -0.58,-0.71 -1.19,-3.68 -2.06,-3.68 c -0.15,-1.17 -0.11,-2.33 0.11,-3.49 c 1.94,0.17 3.77,0.67 5.49,1.5 c 2.89,0.31 2.7,-2.74 3.92,0.88 c 1.49,1.57 17.03,4.77 20.21,5.54 c 13.17,1.91 30.48,-6.1 42.93,-10.44 c 19.98,-5.43 38.9,-13.92 58.89,-19.28 c 10.9,-4.63 22.47,-5.78 32.87,-11.83 c 11.02,-3.61 20.27,-7.99 29.96,-14.35 c 6.38,-5.89 12.72,-11.85 19,-17.88 c 10.1,-7.86 18.22,-17.89 26.55,-27.49 c 1.23,-2.06 2.62,-4 4.19,-5.81 c 1.49,-1.55 3.02,-3.03 4.59,-4.46 c 0.65,-0.74 -0.73,-2.64 -0.5,-3.64 c -0.88,-1.03 -1.6,-0.94 -2.18,0.29 c -1.02,0.13 -1.95,0.48 -2.8,1.04 c -0.12,-0.29 -0.25,-0.58 -0.38,-0.87 c 9.4,-4.69 14.25,-11.95 21.03,-19.56 c 1.61,-1.69 5.03,-7.59 7.64,-6.9 Z"/></g>
<g><path fill="#5a8a7e" d="M 119.03,117.01 c 0.1,1.52 -2.81,4.8 -4.22,5.04 c 0.08,-1.41 2.88,-4.88 4.22,-5.04 Z"/></g>
<g><path fill="#638f7b" d="M 128.05,107.06 c -0.01,0.69 -0.24,1.29 -0.68,1.81 c -2.03,1.98 -3.97,4.03 -5.85,6.15 c -0.43,0.47 -0.96,0.78 -1.59,0.9 c -0.02,-0.67 -0.04,-1.33 -0.08,-2 c 0.69,-0.05 1.3,-0.32 1.81,-0.78 c 1.9,-2.28 4.03,-4.31 6.39,-6.08 Z"/></g>
<g><path fill="#6c957a" d="M 136.04,99.73 c -0.3,1.94 -4,3.99 -5.19,5.66 c -0.52,0.42 -1.11,0.64 -1.77,0.66 c 1.49,-1.91 3.16,-3.67 5.02,-5.27 c 0.58,-0.47 1.23,-0.82 1.94,-1.05 Z"/></g>
<g><path fill="#67917b" d="M 141.82,94.93 c -0.76,1.72 -2.06,2.78 -3.89,3.18 c 0.87,-1.58 2.17,-2.65 3.89,-3.18 Z M 113.16,123.88 c -0.31,1.89 -1.31,3.31 -3.01,4.25 c -0.12,-1.81 1.59,-3.37 3.01,-4.25 Z M 110.15,128.13 c -0.55,1.67 -1.52,3.04 -2.91,4.11 c -0.21,-1.59 1.3,-3.89 2.91,-4.11 Z M 107.24,132.24 c -0.97,2.3 -2.34,4.32 -4.1,6.07 c -0.3,-1.65 2.25,-6 4.1,-6.07 Z M 103.14,138.31 c -0.78,1.43 -1.36,4.53 -3.33,4.64 c 0.29,-1.45 1.56,-4.63 3.33,-4.64 Z"/></g>
<g><path fill="#64907e" d="M 151.1,87.75 c -0.31,1.76 -6.52,6.27 -8.23,6.23 c 0.76,-1.07 1.68,-1.98 2.77,-2.72 c 1.73,-1.33 3.55,-2.5 5.46,-3.51 Z"/></g>
<g><path fill="#236aa2" stroke="#236aa2" stroke-width="0.5" d="M 345.82,80.38 c 0.62,-0.08 1.23,-0.16 1.85,-0.22 c 0.55,6.67 -5.51,14.82 -8.71,20.43 c -5.02,10.1 -10.09,19.95 -16.93,28.98 c -15.72,19.15 -36.15,30.14 -56.41,43.55 c -10.73,5.19 -21.36,10.61 -31.88,16.23 c -13.42,7.14 -26.38,9.77 -41.25,5.21 c -8.68,-2.77 -17.39,-5.48 -26.11,-8.13 c -4.95,-1.85 -9.91,-3.66 -14.88,-5.44 c -9.99,-1.75 -19.02,-5.67 -28.76,-8.2 c -8.94,-2.24 -17.93,-4.27 -26.96,-6.11 c -2.14,-1.06 -4,-1.15 -4.68,-3.77 c 0.67,-0.94 0.76,-1.9 0.27,-2.89 c 0.67,-1.83 2.13,-2.86 1.54,-4.99 c 0.79,-1.29 1.5,-2.62 2.12,-4 c 0.44,0.01 0.88,0.01 1.32,0.02 c 0.33,0.4 0.43,0.85 0.31,1.35 c -1.32,1.12 -4.06,5.47 -1.22,6.3 c 0.41,-0.65 0.89,-1.24 1.44,-1.77 c 1.14,-0.2 2.29,-0.22 3.44,-0.07 c 5.73,1.13 11.47,2.2 17.23,3.2 c 3.07,0.87 6.14,1.7 9.23,2.51 c 2.94,0.36 5.87,0.81 8.79,1.34 c 5.27,1.46 10.38,5.05 15.42,7.19 c 5.21,0.76 10.4,1.59 15.58,2.5 c 5.56,2.42 11.25,3.65 16.94,5.55 c 4.28,2.08 8.61,4.03 12.99,5.86 c 6.9,1.37 18.91,2.5 25.24,-1.53 c 4.39,-3.02 8.91,-5.84 13.56,-8.45 c 1.28,-0.78 2.45,-1.71 3.5,-2.78 c 0.65,0.23 1.21,0.6 1.68,1.1 c 1.15,-0.4 2.29,-0.81 3.42,-1.24 c 8.38,-4.56 16.92,-7.97 24.45,-13.99 c 0.37,-0.51 0.79,-0.96 1.27,-1.36 c 3.17,-1.2 6.18,-2.72 9.04,-4.56 c 5.37,-4.91 11.05,-9.44 17.03,-13.6 c 0.43,0.04 0.82,-0.06 1.16,-0.29 c 1.84,-2.14 3.81,-4.16 5.92,-6.04 c 1.18,0.29 1.72,1.07 1.63,2.34 c 3.38,-4.05 6.57,-8.25 9.55,-12.6 c 3.61,-3.94 7.11,-7.95 10.51,-12.06 c 1.81,-3.69 3.45,-7.46 4.92,-11.3 c 2.24,-4.01 4.67,-7.91 7.28,-11.7 c 1.1,-2.1 1.99,-4.28 2.67,-6.52 c 0.74,-1.37 2.91,0.48 3.67,1.06 c 0.91,0.62 3.7,0.44 2.82,-1.11 Z"/></g>
<g><path fill="#6a9680" d="M 166.96,77.88 c -0.75,2.01 -5.02,3.76 -7.05,4.1 c 1.09,-1.87 4.96,-3.59 7.05,-4.1 Z"/></g>
<g><path fill="#51807d" d="M 336.11,73.76 c 3.78,0.37 6.51,3.81 10.13,4.27 c 0.89,0.42 1.37,1.13 1.43,2.13 c -0.62,0.06 -1.23,0.14 -1.85,0.22 c -0.51,-0.37 -0.99,-0.79 -1.42,-1.26 c -1.45,-0.9 -7.92,-3.88 -8.29,-5.36 Z"/></g>
<g><path fill="#65947d" d="M 328.16,70.01 c 1.93,0.02 3.57,0.73 4.91,2.12 c -1.95,0 -3.59,-0.71 -4.91,-2.12 Z"/></g>
<g><path fill="#c1d174" d="M 346.24,78.03 c -3.62,-0.46 -6.35,-3.9 -10.13,-4.27 c -0.81,-0.88 -1.82,-1.43 -3.04,-1.63 c -1.34,-1.39 -2.98,-2.1 -4.91,-2.12 c -0.31,-0.61 -0.8,-1.04 -1.45,-1.29 c 0.39,-0.69 0.97,-0.85 1.73,-0.48 c 2.71,1.41 6.27,2.31 8.49,4.36 c 2.59,0.94 5.07,2.13 7.42,3.58 c 0.82,0.43 1.45,1.05 1.89,1.85 Z"/></g>
<g><path fill="#48817f" d="M 307.76,62.23 c 4.16,1.08 8.24,2.4 12.25,3.96 c 0.16,0.49 -0.01,0.77 -0.52,0.84 c -3.38,-0.79 -6.71,-1.79 -9.98,-2.98 c -0.96,-0.25 -1.54,-0.85 -1.75,-1.82 Z"/></g>
<g><path fill="#4e8381" d="M 208.32,61.01 c -0.23,0.66 -0.66,1.12 -1.29,1.4 c -4.63,1.17 -9.16,2.6 -13.61,4.27 c -2.35,1.06 -4.72,2.06 -7.11,3.01 c -0.9,0.27 -1.71,0.1 -2.43,-0.5 c 2.81,-1.2 5.64,-2.35 8.49,-3.45 c 0.33,-0.24 0.44,-0.56 0.33,-0.95 c 0.88,0.24 1.75,0.23 2.62,-0.05 c 4.24,-1.57 8.58,-2.81 13,-3.73 Z"/></g>
<g><path fill="#528686" d="M 219.04,58.28 c 0.53,1.53 -6.49,2.85 -7.51,2.66 c -0.45,-0.11 -0.62,-0.39 -0.53,-0.83 c 2.65,-0.78 5.33,-1.39 8.04,-1.83 Z"/></g>
<g><path fill="#447f86" d="M 263.74,55.24 c 3.35,-0.88 9.64,0.29 13.26,0.67 c -0.16,0.77 -0.65,1.1 -1.47,0.98 c -3.29,-0.44 -6.59,-0.6 -9.91,-0.48 c -0.96,0.11 -1.58,-0.28 -1.88,-1.17 Z"/></g>
<g><path fill="#cfd86e" d="M 280.22,55.73 c -1.06,0.34 -2.13,0.4 -3.22,0.18 c -3.62,-0.38 -9.91,-1.55 -13.26,-0.67 c -0.72,-0.28 -1.47,-0.43 -2.25,-0.46 c -6.99,-0.18 -13.98,-0.01 -20.96,0.5 c -3.62,0.49 -7.26,0.82 -10.92,0.97 c -3.49,0.83 -7.01,1.51 -10.57,2.03 c -2.71,0.44 -5.39,1.05 -8.04,1.83 c -0.93,0.18 -1.83,0.48 -2.68,0.9 c -4.42,0.92 -8.76,2.16 -13,3.73 c -0.87,0.28 -1.74,0.29 -2.62,0.05 c 0.11,-0.37 0.34,-0.63 0.69,-0.79 c 3.69,-1.4 7.37,-2.76 11.05,-4.09 c 2.23,-0.36 4.46,-0.74 6.7,-1.12 c 0.63,-0.34 1.26,-0.7 1.89,-1.08 c 2.39,-0.25 4.77,-0.51 7.16,-0.8 c 0.89,-0.41 1.7,-0.92 2.44,-1.53 c 4.29,0.1 10.11,-0.28 14.06,-1.97 c 12.41,-0.33 24.82,-0.28 37.23,0.14 c 0.86,0.28 1.72,0.57 2.57,0.86 c 1.09,0.56 3.8,-0.55 3.73,1.32 Z"/></g>
<g><path fill="#60842d" d="M 95.92,324.05 c 1.07,0.07 2.06,0.39 2.98,0.96 c -0.01,1.27 0.35,2.45 1.06,3.52 c 0.64,0.86 1.32,1.66 2.05,2.38 c -0.07,0.73 -0.16,1.46 -0.25,2.18 c -2.47,-2.16 -4.3,-6.1 -5.84,-9.04 Z"/></g>
<g><path fill="#34724b" stroke="#34724b" stroke-width="0.5" d="M 428.22,182.89 c 0.35,0.14 0.61,0.39 0.78,0.74 c 0.22,1.95 0.67,3.85 1.34,5.7 c 0.37,0.41 0.84,0.65 1.42,0.71 c 0.01,0.62 0.03,1.24 0.04,1.86 c -17.44,-0.02 -34.88,-0.1 -52.32,-0.24 c -1.07,0.08 -2.1,0.34 -3.08,0.77 c -0.24,-0.92 0.1,-1.46 1.03,-1.63 c 15.69,0.08 31.39,0.08 47.09,-0.03 c 0.5,0.08 0.96,-0.02 1.37,-0.31 c -0.6,-0.35 -1.19,-0.72 -1.78,-1.09 c -1.02,-2.55 -2.41,-0.86 -3.63,0.28 c -0.69,-0.83 -1.44,-1.62 -2.25,-2.36 c -6.06,-3.05 -41.5,-1.79 -45.59,4.76 c -0.79,1.84 -1.76,3.58 -2.92,5.22 c -0.89,0.31 -1.81,0.39 -2.75,0.26 c -4.21,3.85 -6.32,8 -9.28,12.7 c -1.03,0.5 -1.79,1.24 -2.28,2.23 c 0.55,0.72 2.88,1.58 1.19,2.67 c -3.63,-0.32 -4.37,-0.8 -4.01,3.17 c -1.63,3.86 -6.87,7.23 -7.85,11.87 c -0.75,0.65 -1.57,1.22 -2.46,1.69 c -0.25,1 -0.54,1.97 -0.88,2.93 c -0.77,0.24 -1.53,0.53 -2.26,0.85 c -1.04,1.3 -1.98,2.67 -2.83,4.1 c -0.36,1.22 1.39,2.29 0.13,3.15 c -0.61,-0.21 -1.22,-0.44 -1.82,-0.68 c -4.08,4.62 -11.23,10.69 -14.77,15.19 c -0.97,0.4 -1.97,0.71 -3.01,0.94 c -2.96,3.01 -5.81,6.14 -8.52,9.39 c -0.81,-0.14 -1.61,-0.22 -2.42,-0.26 c -0.57,0.84 -0.98,1.75 -1.23,2.75 c -0.88,0.79 -1.71,1.63 -2.49,2.51 c -0.01,3.31 -0.66,1.89 -2.86,1.27 c -0.42,-0.07 -0.72,0.07 -0.91,0.42 c 0.4,0.57 2.34,1.58 0.86,2.25 c -3.84,0.03 -2.01,0.02 -2.66,2.94 c -2.07,-0.79 -5.66,3.19 -6.72,4.76 c -2.34,1.63 -4.34,3.61 -5.99,5.92 c -0.8,0.12 -1.59,0.03 -2.39,-0.25 c -0.43,0.9 -0.82,1.83 -1.16,2.8 c -5.41,1.63 -14.03,4.88 -19.09,6.89 c -4.79,0.24 -9.57,0.54 -14.35,0.92 c -1.98,0.2 -3.76,0.88 -5.35,2.06 c -0.68,-0.47 -1.39,-0.89 -2.13,-1.26 c -8.07,0.88 -14.45,1.24 -22.31,4 c -1.66,0.34 -3.3,0.63 -4.9,0.9 c 1.12,0.46 2.27,0.85 3.43,1.14 c -0.48,0.64 -1.13,0.91 -1.96,0.82 c -1.77,-0.12 -3.53,-0.34 -5.26,-0.66 c -0.99,1.43 1.51,2.05 0.09,3.22 c -0.62,-0.26 -1.25,-0.5 -1.88,-0.73 c -1.91,0.59 -3.47,1.67 -4.68,3.26 c -2.83,1 -3.67,-0.41 -5.61,2.32 c -5.38,2.47 -6.69,5.28 -10.91,8.28 c -0.97,-0.06 -1.89,-0.32 -2.76,-0.79 c -9.1,9.61 -52.77,19.07 -63.98,13.4 c -2.5,-0.75 -6.09,0.35 -8.12,-1.32 c -1.21,0.86 -2.35,0.79 -3.41,-0.21 c -1.72,-1.52 -2.89,-1.15 -4.15,-3.69 c -0.28,-0.29 -0.61,-0.45 -1.01,-0.48 c -0.73,-0.72 -1.41,-1.52 -2.05,-2.38 c -0.71,-1.07 -1.07,-2.25 -1.06,-3.52 c 0.62,0.2 1.2,0.49 1.74,0.87 c 2.52,0.38 1.46,-2.27 2.67,1.14 c 3.5,3.46 7.7,5.4 12.62,5.82 c 12.89,1.57 25.71,1.11 38.45,-1.37 c 12.53,-2.12 22.09,-8.89 33.2,-14.39 c 5.63,-3.37 11.29,-6.7 16.98,-9.97 c 13.33,-7.66 28.41,-9.3 43.48,-9.75 c 6.73,-0.89 13.39,-2.14 19.97,-3.76 c 1.54,-0.91 4.28,-1.26 4.09,-3.57 c 8.78,1.59 37.98,-30.3 45.93,-36.42 c 13.85,-12.06 25.17,-27.7 34.6,-43.25 c 3.1,1.55 1.97,0.06 2.18,-1.54 c 13.7,-29.84 36.56,-27.31 65.26,-25.08 c 0.85,0.32 1.63,0.76 2.33,1.3 c 1.35,-0.92 2.73,-0.95 4.14,-0.09 c 0.34,0.56 0.77,1.04 1.3,1.43 c 1.04,-0.87 -0.1,-2.37 0.38,-3.49 Z"/></g>
<g><path fill="#f9fab7" d="M 415.99,102.32 c 1.09,0.57 2,1.36 2.74,2.37 c 2.27,3.09 4.61,6.11 7.04,9.07 c 0.8,1.3 1.21,2.71 1.22,4.2 c -0.55,-0.17 -0.99,-0.48 -1.32,-0.95 c -2.19,-3.49 -4.56,-6.85 -7.11,-10.07 c -1.25,-1.42 -3.31,-2.37 -2.57,-4.62 Z"/></g>
<g><path fill="#faf5ae" d="M 112.26,85.01 c -0.14,0.74 -0.45,1.39 -0.93,1.95 c -1.88,1.73 -3.67,3.54 -5.36,5.43 c -1.26,0.74 -2.26,1.74 -3,3.02 c -0.49,0.39 -1.05,0.61 -1.67,0.67 c -0.05,-0.71 0.14,-1.36 0.56,-1.94 c 2.35,-2.24 4.6,-4.59 6.76,-7.02 c 0.68,-0.18 3.55,-4.44 3.64,-2.11 Z"/></g>
<g><path fill="#ced56b" d="M 357.1,85.14 c -1.45,-0.56 -2.8,-1.29 -4.06,-2.2 c -1.25,-1.06 -2.6,-1.94 -4.05,-2.66 c -0.09,-0.93 0.3,-1.3 1.19,-1.09 c 1.66,1.14 3.37,2.2 5.14,3.17 c 0.2,0.58 3.54,2.38 1.78,2.78 Z"/></g>
<g><path fill="#010307" stroke="#010307" stroke-width="0.5" d="M 78.27,611.97 c 18.36,-44.27 36.88,-88.48 55.53,-132.63 c 0.2,-0.78 0.69,-1.13 1.46,-1.07 c 18.77,43.95 37.42,87.98 55.95,132.07 c 0.78,1.74 0.21,2.56 -1.72,2.45 c -36.34,-0.05 -72.67,-0.05 -109,-0.01 c -0.62,-0.05 -2.18,0.2 -2.22,-0.81 Z M 201.95,484 c 0.02,-1.17 -0.1,-2.9 1.59,-2.78 c 24.33,0 48.65,0 72.97,0 c 1.23,-0.26 2.04,0.18 2.42,1.31 c 0.08,7.66 0.1,15.32 0.07,22.98 c 0.11,0.9 -0.11,1.68 -0.66,2.35 c -14.61,0.21 -29.22,0.29 -43.85,0.24 c -0.84,-0.12 -1.57,0.09 -2.19,0.63 c 0,7.92 -0.03,15.83 -0.1,23.75 c -0.07,0.54 0.09,0.99 0.49,1.35 c 13.26,0.3 26.53,0.4 39.81,0.29 c 2.13,-0.38 3.11,0.48 2.95,2.58 c 0.01,7.28 0.01,14.55 0.01,21.83 c 0.16,1.5 -0.49,2.33 -1.96,2.47 c -13.33,-0.04 -26.66,-0.01 -39.99,0.09 c -0.51,0.01 -0.9,0.23 -1.16,0.66 c -0.07,16.94 -0.09,33.87 -0.08,50.81 c -0.08,1.06 -0.65,1.64 -1.69,1.77 c -8.7,-0.02 -17.41,-0.01 -26.11,0.03 c -0.99,0.13 -1.78,-0.18 -2.38,-0.94 c -0.12,-43.14 -0.17,-86.28 -0.14,-129.42 Z M 286.25,612.92 c 1.75,-19.91 3.57,-39.81 5.48,-59.71 c 0.13,-2.18 0.03,-4.36 -0.3,-6.52 c 0.48,-0.62 0.8,-1.3 0.95,-2.07 c 2.02,-20.68 3.53,-41.42 5.69,-62.09 c 0.04,-0.52 0.28,-0.9 0.71,-1.16 c 9.9,-0.15 19.8,-0.2 29.7,-0.15 c 0.8,-0.05 1.49,0.17 2.09,0.67 c 8.8,22.56 17.52,45.15 26.15,67.78 c 0.64,0.66 2.46,8.82 4.08,5.66 c 0.44,-1.24 0.94,-2.46 1.48,-3.66 c 8.88,-23.36 17.87,-46.66 26.96,-69.91 c 0.69,-0.44 1.45,-0.62 2.27,-0.56 c 9,0.03 18,0.03 26.99,0 c 1.13,-0.12 2.16,0.09 3.11,0.65 c 4.05,43.57 7.96,87.14 11.74,130.74 c -0.07,1.1 -0.66,1.69 -1.77,1.76 c -8.7,-0.03 -17.4,-0.03 -26.1,-0.01 c -1.45,0.16 -2.29,-0.45 -2.52,-1.83 c -1.9,-21.65 -3.58,-43.32 -5.04,-65.01 c -0.56,-2.98 -0.85,-5.99 -0.87,-9.03 c -0.11,-2.4 -1.48,-1.46 -1.89,0.15 c -8.51,24.49 -17.08,48.97 -25.69,73.43 c -0.68,1.06 -1.66,1.54 -2.94,1.44 c -4.69,-0.01 -9.38,-0.02 -14.06,-0.04 c -0.94,-0.04 -1.65,-0.45 -2.14,-1.23 c -8.69,-24.75 -17.33,-49.52 -25.94,-74.3 c -0.42,-1.41 -1.7,-0.85 -1.71,0.56 c -2.12,24.86 -3.83,49.9 -6.01,74.77 c -0.51,0.73 -1.23,1.09 -2.14,1.07 c -8.69,0 -17.37,0.01 -26.06,0.02 c -1.16,0.09 -1.9,-0.38 -2.22,-1.42 Z M 78.11,641.99 c -0.03,-0.4 0.13,-0.72 0.47,-0.95 c 2.41,-0.6 10.87,-0.09 13.94,-0.27 c 0.86,-0.09 1.56,0.17 2.08,0.79 c -0.75,2.74 -6.3,-0.13 -7.25,2.18 c -0.07,6.93 -0.09,13.86 -0.07,20.78 c 0.19,3.2 -2.39,2.58 -2.13,-0.02 c 0.04,-7 0,-13.98 -0.14,-20.97 c -1.2,-1.97 -6.17,0.47 -6.9,-1.54 Z M 209.86,646.02 c 0.77,-0.12 1.53,-0.18 2.31,-0.18 c 1.62,5.73 1.94,13.55 -1.79,18.55 c -0.82,-0.21 -1.65,-0.43 -2.47,-0.66 c 1.91,-1.63 2.97,-3.71 3.18,-6.22 c 0.27,-3.67 0.59,-8.14 -1.23,-11.49 Z M 115.08,648.04 c 0.73,0.01 1.46,0.04 2.19,0.07 c -0.89,4.83 -1.55,12.33 2.88,15.72 c -0.86,0.18 -1.72,0.37 -2.57,0.58 c -3.49,-4.22 -3.41,-11.25 -2.5,-16.37 Z"/></g>
<g><path fill="#2e6542" stroke="#2e6542" stroke-width="0.5" d="M 376.4,192.43 c -12.45,18.37 -24.88,36.77 -37.27,55.19 c -8.76,9.18 -20.08,18.86 -29.5,27.68 c -0.6,-1.37 -1.49,-1.64 -2.68,-0.82 c -1.89,1.71 -2.89,3.71 -5.47,4.53 c -2.3,3.43 -5.28,6.1 -8.94,8.01 c -1.27,2.93 -2.55,2.98 -5.03,4.68 c -2.1,-1.07 -1.94,0.96 -3.05,2.29 c -1.24,1.08 -2.47,2.16 -3.71,3.24 c 0.06,0.4 0.12,0.8 0.19,1.2 c -1,0.26 -1.95,0.61 -2.84,1.06 c 0.11,0.39 0.29,0.75 0.54,1.08 c -1.81,1.83 -3.03,0.95 -5.14,0.48 c -1.64,0.57 -1.53,2.43 -2.99,0.55 c -0.31,0.28 -0.64,0.54 -1,0.77 c -0.53,-0.45 -1.09,-0.81 -1.68,-1.07 c -0.18,0.77 -0.66,1.23 -1.41,1.4 c -2.68,0.17 -5.31,0.62 -7.9,1.35 c -5.95,-0.52 -11.3,0.96 -17.02,1.11 c -6.47,2.53 -21.24,-0.65 -26.2,5.82 c -3.69,0.12 -2.91,0.5 -5.72,2.39 c -6.35,3.59 -12,7.66 -18.52,11.04 c -5.25,2.05 -10.26,5.91 -14.95,8.13 c -1.2,2.57 -3.8,1.07 -5.94,2.24 c -4.15,6.45 -10,5.28 -16.67,5.29 c -6.18,2.42 -9.74,1.01 -16,0.97 c -8.05,-0.13 -16.09,0.02 -24.13,0.44 c -0.32,-0.07 -0.64,-0.14 -0.96,-0.21 c -0.38,-0.69 -0.77,-1.36 -1.18,-2.01 c -1.54,-0.89 -4.79,-1.83 -4.06,-4.18 c 1.06,1 2.2,1.07 3.41,0.21 c 2.03,1.67 5.62,0.57 8.12,1.32 c 11.21,5.67 54.88,-3.79 63.98,-13.4 c 0.87,0.47 1.79,0.73 2.76,0.79 c 4.22,-3 5.53,-5.81 10.91,-8.28 c 1.94,-2.73 2.78,-1.32 5.61,-2.32 c 1.21,-1.59 2.77,-2.67 4.68,-3.26 c 0.63,0.23 1.26,0.47 1.88,0.73 c 1.42,-1.17 -1.08,-1.79 -0.09,-3.22 c 1.73,0.32 3.49,0.54 5.26,0.66 c 0.83,0.09 1.48,-0.18 1.96,-0.82 c -1.16,-0.29 -2.31,-0.68 -3.43,-1.14 c 1.6,-0.27 3.24,-0.56 4.9,-0.9 c 7.86,-2.76 14.24,-3.12 22.31,-4 c 0.74,0.37 1.45,0.79 2.13,1.26 c 1.59,-1.18 3.37,-1.86 5.35,-2.06 c 4.78,-0.38 9.56,-0.68 14.35,-0.92 c 5.06,-2.01 13.68,-5.26 19.09,-6.89 c 0.34,-0.97 0.73,-1.9 1.16,-2.8 c 0.8,0.28 1.59,0.37 2.39,0.25 c 1.65,-2.31 3.65,-4.29 5.99,-5.92 c 1.06,-1.57 4.65,-5.55 6.72,-4.76 c 0.65,-2.92 -1.18,-2.91 2.66,-2.94 c 1.48,-0.67 -0.46,-1.68 -0.86,-2.25 c 0.19,-0.35 0.49,-0.49 0.91,-0.42 c 2.2,0.62 2.85,2.04 2.86,-1.27 c 0.78,-0.88 1.61,-1.72 2.49,-2.51 c 0.25,-1 0.66,-1.91 1.23,-2.75 c 0.81,0.04 1.61,0.12 2.42,0.26 c 2.71,-3.25 5.56,-6.38 8.52,-9.39 c 1.04,-0.23 2.04,-0.54 3.01,-0.94 c 3.54,-4.5 10.69,-10.57 14.77,-15.19 c 0.6,0.24 1.21,0.47 1.82,0.68 c 1.26,-0.86 -0.49,-1.93 -0.13,-3.15 c 0.85,-1.43 1.79,-2.8 2.83,-4.1 c 0.73,-0.32 1.49,-0.61 2.26,-0.85 c 0.34,-0.96 0.63,-1.93 0.88,-2.93 c 0.89,-0.47 1.71,-1.04 2.46,-1.69 c 0.98,-4.64 6.22,-8.01 7.85,-11.87 c -0.36,-3.97 0.38,-3.49 4.01,-3.17 c 1.69,-1.09 -0.64,-1.95 -1.19,-2.67 c 0.49,-0.99 1.25,-1.73 2.28,-2.23 c 2.96,-4.7 5.07,-8.85 9.28,-12.7 c 0.94,0.13 1.86,0.05 2.75,-0.26 c 1.16,-1.64 2.13,-3.38 2.92,-5.22 c 4.09,-6.55 39.53,-7.81 45.59,-4.76 c 0.81,0.74 1.56,1.53 2.25,2.36 c 1.22,-1.14 2.61,-2.83 3.63,-0.28 c 0.59,0.37 1.18,0.74 1.78,1.09 c -0.41,0.29 -0.87,0.39 -1.37,0.31 c -15.7,0.11 -31.4,0.11 -47.09,0.03 c -0.93,0.17 -1.27,0.71 -1.03,1.63 Z"/></g>
<g><path fill="#8ec162" stroke="#8ec162" stroke-width="0.5" d="M 376.4,192.43 c 0.98,-0.43 2.01,-0.69 3.08,-0.77 c 17.44,0.14 34.88,0.22 52.32,0.24 c 11.94,43.09 4.93,92.05 -16.02,131.38 c -66.92,120.14 -236.03,128.03 -311.76,12.9 c 3.44,1.88 6.73,7.88 11,7.49 c 10.14,-1.51 46.04,0.75 53.01,-3.25 c 16.85,-9.77 33.67,-19.58 50.46,-29.44 c 1.03,-0.61 2.11,-1.12 3.23,-1.52 c 17.51,-2.06 35.17,-3.34 52.8,-4.4 c 6.01,-0.25 29.28,-24.36 35.11,-29.76 c 9.42,-8.82 20.74,-18.5 29.5,-27.68 c 12.39,-18.42 24.82,-36.82 37.27,-55.19 Z"/></g>
<g><path fill="#2175b4" stroke="#2175b4" stroke-width="0.5" d="M 263.74,55.24 c 0.3,0.89 0.92,1.28 1.88,1.17 c 3.32,-0.12 6.62,0.04 9.91,0.48 c 0.82,0.12 1.31,-0.21 1.47,-0.98 c 1.09,0.22 2.16,0.16 3.22,-0.18 c 7.6,1.57 15.18,3.2 22.76,4.91 c 1.53,0.73 3.12,1.26 4.78,1.59 c 0.21,0.97 0.79,1.57 1.75,1.82 c 3.27,1.19 6.6,2.19 9.98,2.98 c 0.51,-0.07 0.68,-0.35 0.52,-0.84 c 1.26,0.79 2.63,1.17 4.11,1.14 c 0.7,0.74 1.56,1.2 2.59,1.39 c 0.65,0.25 1.14,0.68 1.45,1.29 c 1.32,1.41 2.96,2.12 4.91,2.12 c 1.22,0.2 2.23,0.75 3.04,1.63 c 0.37,1.48 6.84,4.46 8.29,5.36 c 0.43,0.47 0.91,0.89 1.42,1.26 c 0.88,1.55 -1.91,1.73 -2.82,1.11 c -0.76,-0.58 -2.93,-2.43 -3.67,-1.06 c -0.68,2.24 -1.57,4.42 -2.67,6.52 c -2.61,3.79 -5.04,7.69 -7.28,11.7 c -1.47,3.84 -3.11,7.61 -4.92,11.3 c -3.4,4.11 -6.9,8.12 -10.51,12.06 c -2.98,4.35 -6.17,8.55 -9.55,12.6 c 0.09,-1.27 -0.45,-2.05 -1.63,-2.34 c -2.11,1.88 -4.08,3.9 -5.92,6.04 c -0.34,0.23 -0.73,0.33 -1.16,0.29 c -5.98,4.16 -11.66,8.69 -17.03,13.6 c -2.86,1.84 -5.87,3.36 -9.04,4.56 c -0.48,0.4 -0.9,0.85 -1.27,1.36 c -7.53,6.02 -16.07,9.43 -24.45,13.99 c -1.13,0.43 -2.27,0.84 -3.42,1.24 c -0.47,-0.5 -1.03,-0.87 -1.68,-1.1 c -1.05,1.07 -2.22,2 -3.5,2.78 c -4.65,2.61 -9.17,5.43 -13.56,8.45 c -6.33,4.03 -18.34,2.9 -25.24,1.53 c -4.38,-1.83 -8.71,-3.78 -12.99,-5.86 c -5.69,-1.9 -11.38,-3.13 -16.94,-5.55 c -5.18,-0.91 -10.37,-1.74 -15.58,-2.5 c -5.04,-2.14 -10.15,-5.73 -15.42,-7.19 c -2.92,-0.53 -5.85,-0.98 -8.79,-1.34 c -3.09,-0.81 -6.16,-1.64 -9.23,-2.51 c -5.76,-1 -11.5,-2.07 -17.23,-3.2 c -1.15,-0.15 -2.3,-0.13 -3.44,0.07 c -0.55,0.53 -1.03,1.12 -1.44,1.77 c -2.84,-0.83 -0.1,-5.18 1.22,-6.3 c 0.12,-0.5 0.02,-0.95 -0.31,-1.35 c 1.08,-2.01 2.16,-4.02 3.23,-6.04 c 0.25,-0.5 0.11,-0.85 -0.4,-1.05 c 0.02,-0.46 0.23,-0.8 0.63,-1.01 c 1.97,-0.11 2.55,-3.21 3.33,-4.64 c 1.76,-1.75 3.13,-3.77 4.1,-6.07 c 1.39,-1.07 2.36,-2.44 2.91,-4.11 c 1.7,-0.94 2.7,-2.36 3.01,-4.25 c 0.15,-0.64 0.17,-1.29 0.05,-1.93 c 0.53,0.08 1.07,0.11 1.6,0.1 c 1.41,-0.24 4.32,-3.52 4.22,-5.04 c 0.08,-0.55 0.38,-0.91 0.9,-1.09 c 0.63,-0.12 1.16,-0.43 1.59,-0.9 c 1.88,-2.12 3.82,-4.17 5.85,-6.15 c 0.44,-0.52 0.67,-1.12 0.68,-1.81 c 0.14,-0.54 0.48,-0.88 1.03,-1.01 c 0.66,-0.02 1.25,-0.24 1.77,-0.66 c 1.19,-1.67 4.89,-3.72 5.19,-5.66 c 0.25,-0.98 0.88,-1.52 1.89,-1.62 c 1.83,-0.4 3.13,-1.46 3.89,-3.18 c 0.2,-0.49 0.55,-0.81 1.05,-0.95 c 1.71,0.04 7.92,-4.47 8.23,-6.23 c 0.42,-0.51 0.72,-1.09 0.9,-1.72 c 2.88,0.16 5.08,-3.48 7.91,-4.05 c 2.03,-0.34 6.3,-2.09 7.05,-4.1 c 1.18,-1.02 2.49,-1.84 3.94,-2.47 c 4.31,-2.12 8.63,-4.2 12.98,-6.22 c 0.72,0.6 1.53,0.77 2.43,0.5 c 2.39,-0.95 4.76,-1.95 7.11,-3.01 c 4.45,-1.67 8.98,-3.1 13.61,-4.27 c 0.63,-0.28 1.06,-0.74 1.29,-1.4 c 0.85,-0.42 1.75,-0.72 2.68,-0.9 c -0.09,0.44 0.08,0.72 0.53,0.83 c 1.02,0.19 8.04,-1.13 7.51,-2.66 c 3.56,-0.52 7.08,-1.2 10.57,-2.03 c 3.66,-0.15 7.3,-0.48 10.92,-0.97 c 6.98,-0.51 13.97,-0.68 20.96,-0.5 c 0.78,0.03 1.53,0.18 2.25,0.46 Z"/></g>
<g><path fill="#d1dc71" d="M 113.21,121.95 c 0.12,0.64 0.1,1.29 -0.05,1.93 c -1.42,0.88 -3.13,2.44 -3.01,4.25 c -1.61,0.22 -3.12,2.52 -2.91,4.11 c -1.85,0.07 -4.4,4.42 -4.1,6.07 c -1.77,0.01 -3.04,3.19 -3.33,4.64 c -0.4,0.21 -0.61,0.55 -0.63,1.01 c -1.68,1.23 -3.18,5.16 -4.15,7.07 c -0.62,1.38 -1.33,2.71 -2.12,4 c -1.29,1.34 -2.66,4.16 -2.78,6.01 c -0.17,0.33 -0.34,0.66 -0.48,0.99 c -0.71,-0.74 -0.89,-1.6 -0.56,-2.58 c 1.15,-2.4 2.28,-4.8 3.41,-7.2 c 1.95,-3.19 3.78,-6.44 5.49,-9.77 c 3.33,-5.26 6.77,-10.45 10.3,-15.57 c 0.77,-0.86 4.01,-4.91 4.92,-4.96 Z"/></g>
<g><path fill="#c7d476" d="M 119.85,113.92 c 0.04,0.67 0.06,1.33 0.08,2 c -0.52,0.18 -0.82,0.54 -0.9,1.09 c -1.34,0.16 -4.14,3.63 -4.22,5.04 c -0.53,0.01 -1.07,-0.02 -1.6,-0.1 c 0.38,-1.23 0.97,-2.38 1.77,-3.45 c 1.71,-1.45 3.34,-2.98 4.87,-4.58 Z"/></g>
<g><path fill="#d2df6f" d="M 152,86.03 c -0.18,0.63 -0.48,1.21 -0.9,1.72 c -1.91,1.01 -3.73,2.18 -5.46,3.51 c -1.09,0.74 -2.01,1.65 -2.77,2.72 c -0.5,0.14 -0.85,0.46 -1.05,0.95 c -1.72,0.53 -3.02,1.6 -3.89,3.18 c -1.01,0.1 -1.64,0.64 -1.89,1.62 c -0.71,0.23 -1.36,0.58 -1.94,1.05 c -1.86,1.6 -3.53,3.36 -5.02,5.27 c -0.55,0.13 -0.89,0.47 -1.03,1.01 c -2.36,1.77 -4.49,3.8 -6.39,6.08 c -0.51,0.46 -1.12,0.73 -1.81,0.78 c 0.31,-1.1 0.91,-2.02 1.8,-2.75 c 3.97,-3.98 7.98,-7.92 12.04,-11.82 c 4.88,-4.17 9.87,-8.21 14.95,-12.1 c 1,-0.75 2.12,-1.15 3.36,-1.22 Z"/></g>
<g><path fill="#ccd972" d="M 192.7,64.79 c 0.11,0.39 0,0.71 -0.33,0.95 c -2.85,1.1 -5.68,2.25 -8.49,3.45 c -4.35,2.02 -8.67,4.1 -12.98,6.22 c -1.45,0.63 -2.76,1.45 -3.94,2.47 c -2.09,0.51 -5.96,2.23 -7.05,4.1 c -2.83,0.57 -5.03,4.21 -7.91,4.05 c -0.14,-1.05 3.28,-2.95 3.95,-3.69 c 4.77,-2.89 9.58,-5.68 14.44,-8.39 c 2,-1.33 3.14,-0.43 4.22,-3.02 c 1.05,-0.17 2.11,-0.34 3.16,-0.49 c 3.91,-1.83 7.82,-3.63 11.75,-5.38 c 1.04,-0.34 2.1,-0.43 3.18,-0.27 Z"/></g>
<g><path fill="#c8d873" d="M 302.98,60.64 c 0.74,-0.67 1.6,-0.9 2.58,-0.69 c 6.29,1.95 12.55,4.02 18.76,6.22 c 0.36,0.43 0.3,0.82 -0.2,1.16 c -1.48,0.03 -2.85,-0.35 -4.11,-1.14 c -4.01,-1.56 -8.09,-2.88 -12.25,-3.96 c -1.66,-0.33 -3.25,-0.86 -4.78,-1.59 Z"/></g>
<g><path fill="#56b171" stroke="#56b171" stroke-width="0.5" d="M 365.19,91.01 c 27.14,21.09 49.15,49.35 60.93,81.79 c -0.48,-0.1 -0.86,-0.35 -1.13,-0.76 c -0.65,-1.51 -1.91,-5.21 -3.44,-5.78 c -0.28,1.02 -0.51,2.07 -0.71,3.14 c -1.05,1.1 -1.02,-0.95 -1.01,-1.52 c -0.84,-2.48 -2.63,0.68 -3,-3.17 c -6.33,-5.44 -21.75,-2.03 -29.46,-0.36 c -11.46,0.65 -21.33,0.73 -29.65,9.84 c -1.93,2.02 -3.68,4.16 -5.26,6.41 c -0.37,-0.71 -0.68,-1.46 -0.93,-2.24 c -6.98,12.74 -15.68,23.89 -23.19,36.41 c -4.28,4.77 -8.38,9.69 -12.32,14.75 c -12.49,11.85 -44.8,46.85 -60.56,48.5 c -17.57,-0.16 -39.74,3.57 -55.94,10.21 c -23.43,12.95 -52.92,34.88 -81.08,25.47 c -9.33,-3.54 -26.13,-18.01 -32.29,-26 c 0.47,0.8 0.13,4.61 -1.25,3.92 c -0.39,-1.69 -0.76,-3.42 -1.13,-5.17 c -0.41,-1.02 -2.54,-7.08 -4.18,-4.3 c -0.83,-3.31 -1.73,-6.6 -2.7,-9.87 c 0.65,0.32 1.33,0.5 2.05,0.54 c 7.93,2.41 30.44,13.53 37.06,13.48 c 50.98,-17.11 101.88,-34.46 152.7,-52.05 c 13.24,-10.79 29.53,-27.5 42.68,-39.44 c 17.33,-17.49 29.57,-39.02 37.02,-62.42 c 5.9,-13.67 11.49,-27.46 16.79,-41.38 Z"/></g>
<g><path fill="#499b64" d="M 424.99,172.04 c -0.7,0.23 -1.25,0.66 -1.65,1.29 c -23.4,1.64 -49.14,-5.97 -66.31,15.15 c -11.76,16.83 -22.7,35.33 -36.74,50.36 c -11.64,11.01 -23.31,21.98 -35.02,32.92 c -7.84,5.89 -15.53,13.36 -25.74,14.44 c -11.87,1.16 -23.69,2.68 -35.47,4.56 c -7.86,1.15 -15.24,3.69 -22.15,7.6 c -11.99,6.81 -24.06,13.48 -36.2,20.01 c -13.19,6.63 -28.84,6.52 -43.23,5.92 c -13.07,-1.65 -20.06,-8.01 -29.59,-16.1 c -0.36,0.61 -0.89,0.91 -1.59,0.88 c -0.55,-1 -0.41,-1.9 0.39,-2.72 c -4.61,-0.15 -3.12,-5.4 -6.24,-5.55 c 0.12,-0.77 0.29,-1.53 0.53,-2.27 c 1.14,-1.01 0.89,0.53 1.46,1.2 c 2.32,-2.4 2.78,-2.07 1.39,0.97 c 0.66,1.16 1.13,0.13 2.16,0.74 c 4.03,3.71 8.09,7.38 12.2,11.01 c 15.45,13.68 41.16,9.37 58.99,3.86 c 21.56,-10.21 44.3,-27.72 68.32,-30.46 c 13.15,-1.89 28.27,0.19 39.95,-7.15 c 2.8,-1.28 5.91,-4.57 8.94,-4.86 c 0.37,-0.88 0.82,-1.73 1.33,-2.55 c 17.84,-16.86 37.29,-33.15 52.28,-52.68 c 9.16,-15.04 26.03,-44.06 44.87,-46.43 c 2.8,-0.21 5.6,-0.43 8.39,-0.66 c 0.54,-0.33 1.02,-0.75 1.44,-1.24 c 8.56,-0.29 17.14,-0.45 25.75,-0.47 c 2.42,-0.35 4.52,-0.15 6.38,-1.93 c -0.01,0.57 -0.04,2.62 1.01,1.52 c 0.2,-1.07 0.43,-2.12 0.71,-3.14 c 1.53,0.57 2.79,4.27 3.44,5.78 Z"/></g>
<g><path fill="#139e96" stroke="#139e96" stroke-width="0.5" d="M 83.01,183.17 c 11.51,1.22 24.99,2.31 36.18,4.27 c 32.19,10.01 64.36,20.08 96.49,30.24 c 8.16,-1.84 52.28,-24.68 62.19,-29.8 c 0.64,0.06 1.21,0.26 1.71,0.62 c -3.14,3.39 -6.57,6.47 -10.28,9.24 c -1.84,1.56 -3.84,2.81 -6,3.74 c 1.09,1.11 2.33,0.94 0.04,2.39 c -4.05,2.6 -9.85,5.23 -12.95,8.83 c -0.53,-0.06 -1.05,-0.05 -1.57,0.04 c -4.54,1.02 -9.01,2.21 -13.42,3.57 c 1.73,1.31 1.46,1.85 -0.78,1.64 c -1.04,-0.12 -2.02,-0.37 -2.97,-0.77 c -5.73,5.83 -14.44,6.27 -21.95,8.11 c -0.15,0.5 -0.26,1.01 -0.32,1.53 c -9.23,1.22 -16.77,5.61 -25.41,8.65 c -16.22,5.77 -32.71,9.44 -48.55,16.38 c -22.13,7.9 -33.7,5.83 -54.96,-2.98 c -0.31,-0.51 -0.64,-1.01 -0.97,-1.49 c -0.91,1.96 -0.76,2.98 -3.4,2.7 c -0.48,0.03 -0.82,-0.17 -1.01,-0.62 c -0.52,-8.32 -0.54,-16.66 -0.06,-25 c 0.08,-0.73 -0.19,-1.25 -0.81,-1.57 c 0.21,-1.41 0.35,-2.83 0.42,-4.26 c 0.76,-0.01 1.2,-0.4 1.34,-1.15 c 0.75,-4.99 1.43,-9.98 2.04,-14.97 c -0.16,-0.47 -0.49,-0.65 -0.98,-0.54 c 0.78,-4.37 1.8,-8.69 3.05,-12.94 c 0.08,-0.68 0.19,-1.35 0.33,-2.01 c 0.56,-1.02 1.04,-2.07 1.45,-3.15 c 0.44,-0.14 0.83,-0.38 1.15,-0.7 Z"/></g>
<g><path fill="#c6e368" d="M 80.08,189.03 c -1.25,4.25 -2.27,8.57 -3.05,12.94 c -0.25,0.65 -0.46,1.31 -0.61,1.99 c -0.68,4.88 -1.28,9.77 -1.79,14.67 c -0.07,1.43 -0.21,2.85 -0.42,4.26 c -0.11,1.05 -0.2,2.1 -0.29,3.15 c -0.79,-0.15 -1.11,-0.64 -0.95,-1.48 c 0.32,-2.34 0.46,-4.7 0.43,-7.06 c 0.45,-5.01 1.12,-9.99 2.02,-14.93 c 0.65,-1.86 2.07,-13.92 4.66,-13.54 Z"/></g>
<g><path fill="#c5d164" d="M 85.45,171.87 c -0.49,2.08 -1.2,4.09 -2.13,6.02 c -0.96,1.89 -1.45,3.88 -1.46,5.98 c -0.41,1.08 -0.89,2.13 -1.45,3.15 c -1.25,-1.35 -0.3,-3.72 -0.05,-5.3 c 1.24,-3.39 2.45,-6.8 3.66,-10.21 c 0.57,-0.43 1.05,-0.31 1.43,0.36 Z"/></g>
<g><path fill="#168f88" stroke="#168f88" stroke-width="0.5" d="M 307.88,167.65 c 1.67,0 2.97,0.66 3.89,1.98 c -0.89,0.23 -1.73,0.58 -2.53,1.06 c -4.02,3.58 -10.06,9.92 -14.4,12.59 c -7.24,5.04 -12.85,12.55 -19.53,18.44 c -12.36,10.03 -21.04,16.58 -36.56,21.34 c -36.35,12.94 -73.16,24.6 -109.53,37.46 c -20.52,7.32 -32.8,0.6 -51.92,-5.29 c -0.28,-1.16 -0.49,-2.34 -0.64,-3.54 c -0.11,-0.27 -0.3,-0.48 -0.54,-0.64 c -0.01,-0.32 -0.02,-0.65 -0.03,-0.97 c 2.64,0.28 2.49,-0.74 3.4,-2.7 c 0.33,0.48 0.66,0.98 0.97,1.49 c 21.26,8.81 32.83,10.88 54.96,2.98 c 15.84,-6.94 32.33,-10.61 48.55,-16.38 c 8.64,-3.04 16.18,-7.43 25.41,-8.65 c 0.06,-0.52 0.17,-1.03 0.32,-1.53 c 7.51,-1.84 16.22,-2.28 21.95,-8.11 c 0.95,0.4 1.93,0.65 2.97,0.77 c 2.24,0.21 2.51,-0.33 0.78,-1.64 c 4.41,-1.36 8.88,-2.55 13.42,-3.57 c 0.52,-0.09 1.04,-0.1 1.57,-0.04 c 3.1,-3.6 8.9,-6.23 12.95,-8.83 c 2.29,-1.45 1.05,-1.28 -0.04,-2.39 c 2.16,-0.93 4.16,-2.18 6,-3.74 c 3.71,-2.77 7.14,-5.85 10.28,-9.24 c -0.5,-0.36 -1.07,-0.56 -1.71,-0.62 c 9.98,-6.78 19.99,-13.52 30.01,-20.23 Z"/></g>
<g><path fill="#16847e" d="M 294.84,183.28 c 0.8,0.69 1.74,1.1 2.81,1.22 c -8.88,8.66 -17.94,17.14 -27.2,25.43 c -13.34,11.66 -28.21,15.45 -44.58,20.77 c -13.55,5.47 -27.37,10.17 -41.46,14.08 c -18.63,7.63 -38.04,12.65 -56.79,19.79 c -16.87,5.72 -28.69,1.67 -44.54,-4.04 c -1.54,-0.49 -3.1,-0.77 -4.68,-0.83 c -0.33,-0.7 -0.79,-1.3 -1.38,-1.81 c -1.12,-2.18 -1.42,-4.46 -0.9,-6.84 c 0.24,0.16 0.43,0.37 0.54,0.64 c 0.15,1.2 0.36,2.38 0.64,3.54 c 19.12,5.89 31.4,12.61 51.92,5.29 c 36.37,-12.86 73.18,-24.52 109.53,-37.46 c 15.52,-4.76 24.2,-11.31 36.56,-21.34 c 6.68,-5.89 12.29,-13.4 19.53,-18.44 Z"/></g>
<g><path fill="#202125" d="M 415.13,665.94 c 2.3,-7.79 4.62,-15.58 6.97,-23.37 c 0.5,-2.44 3.17,-2.32 3.72,0.03 c 1.47,5.37 6.98,19.02 6.77,23.63 c -0.46,1.11 -1.71,0.34 -2.05,-0.43 c -0.75,-2.17 -1.54,-4.33 -2.37,-6.45 c -2.17,-0.67 -6.15,-0.5 -8.43,-0.1 c -0.94,2.34 -1.91,4.69 -2.91,7.04 c -0.72,0.57 -1.29,0.46 -1.7,-0.35 Z M 420.28,656.72 c 2,0.03 4,0.01 6,-0.06 c 0.56,-0.17 0.84,-0.54 0.86,-1.13 c -0.78,-3.25 -1.7,-6.47 -2.76,-9.66 c -0.2,-0.34 -0.49,-0.54 -0.87,-0.59 c -1.3,3.74 -2.38,7.55 -3.23,11.44 Z M 328.58,650.8 c 1.48,4.6 2.91,9.21 4.28,13.84 c 0.42,1.26 -0.35,3.06 -1.69,1.68 c -1.07,-1.74 -1.54,-5.84 -2.88,-7.11 c -1.88,-0.34 -6.8,-0.58 -8.39,0.19 c -0.88,2.2 -1.67,4.43 -2.36,6.7 c -0.56,0.52 -1.59,1.07 -2.1,0.21 c 0.79,-3.89 1.88,-7.69 3.26,-11.42 c 0.73,0.04 1.46,0.07 2.19,0.1 c -0.09,0.74 0.19,1.28 0.86,1.61 c 1.83,0.09 3.66,0.1 5.5,0.02 c 1.12,-0.5 -0.59,-3.62 -0.6,-4.49 c 0.69,-0.37 1.34,-0.81 1.93,-1.33 Z"/></g>
<g><path fill="#27282a" d="M 390.94,664 c 0.01,-7.17 0.01,-14.35 -0.01,-21.52 c 0.04,-2.14 2.23,-2.04 2.19,0 c -0.02,7.68 -0.06,15.35 -0.12,23.02 c -0.04,0.81 -0.46,1.18 -1.24,1.12 c -0.7,-0.72 -0.97,-1.6 -0.82,-2.62 Z"/></g>
<g><path fill="#202125" d="M 328.58,650.8 c -0.59,0.52 -1.24,0.96 -1.93,1.33 c -0.71,-2.3 -1.42,-4.59 -2.14,-6.86 c -0.41,0.07 -0.74,0.28 -0.97,0.64 c -0.78,3.05 -1.66,6.08 -2.65,9.08 c -0.73,-0.03 -1.46,-0.06 -2.19,-0.1 c 1.13,-4.01 2.35,-8 3.63,-11.97 c 0.27,-1.85 2.37,-3.18 3.5,-1.22 c 0.91,3.04 1.82,6.08 2.75,9.1 Z"/></g>
<g><path fill="#1f2023" d="M 207.91,663.73 c 0.82,0.23 1.65,0.45 2.47,0.66 c -3.42,3.19 -7.25,3.74 -11.47,1.66 c 0.48,-0.83 1.21,-1.31 2.19,-1.43 c 2.43,0.9 4.7,0.6 6.81,-0.89 Z"/></g>
<g><path fill="#2b2c2e" d="M 293.21,643.75 c 1.37,3.35 1.09,6.54 -0.85,9.58 c 0.01,-0.83 -0.11,-1.64 -0.34,-2.43 c -0.17,-1.98 -0.26,-3.97 -0.28,-5.97 c 0.48,-0.41 0.97,-0.8 1.47,-1.18 Z"/></g>
<g><path fill="#232426" d="M 394.53,637.18 c -0.38,-0.33 -0.75,-0.68 -1.11,-1.04 c -0.26,-1.55 0.39,-2.24 1.96,-2.04 c 1.25,0.78 -0.42,2.29 -0.85,3.08 Z"/></g>
<g><path fill="#353638" d="M 393.42,636.14 c 0.36,0.36 0.73,0.71 1.11,1.04 c -0.43,0.7 -1.7,2.72 -2.56,1.27 c -0.04,-1.08 0.44,-1.85 1.45,-2.31 Z"/></g>
<g><path fill="#2f6135" d="M 309.63,275.3 c -5.83,5.4 -29.1,29.51 -35.11,29.76 c -17.63,1.06 -35.29,2.34 -52.8,4.4 c -1.12,0.4 -2.2,0.91 -3.23,1.52 c -16.79,9.86 -33.61,19.67 -50.46,29.44 c -6.97,4 -42.87,1.74 -53.01,3.25 c -4.27,0.39 -7.56,-5.61 -11,-7.49 c -0.67,-1.09 -1.42,-2.12 -2.26,-3.09 c 0.09,-0.72 0.18,-1.45 0.25,-2.18 c 0.4,0.03 0.73,0.19 1.01,0.48 c 1.26,2.54 2.43,2.17 4.15,3.69 c -0.73,2.35 2.52,3.29 4.06,4.18 c 0.41,0.65 0.8,1.32 1.18,2.01 c 0.32,0.07 0.64,0.14 0.96,0.21 c 8.04,-0.42 16.08,-0.57 24.13,-0.44 c 6.26,0.04 9.82,1.45 16,-0.97 c 6.67,-0.01 12.52,1.16 16.67,-5.29 c 2.14,-1.17 4.74,0.33 5.94,-2.24 c 4.69,-2.22 9.7,-6.08 14.95,-8.13 c 6.52,-3.38 12.17,-7.45 18.52,-11.04 c 2.81,-1.89 2.03,-2.27 5.72,-2.39 c 4.96,-6.47 19.73,-3.29 26.2,-5.82 c 5.72,-0.15 11.07,-1.63 17.02,-1.11 c 2.59,-0.73 5.22,-1.18 7.9,-1.35 c 0.75,-0.17 1.23,-0.63 1.41,-1.4 c 0.59,0.26 1.15,0.62 1.68,1.07 c 0.36,-0.23 0.69,-0.49 1,-0.77 c 1.46,1.88 1.35,0.02 2.99,-0.55 c 2.11,0.47 3.33,1.35 5.14,-0.48 c -0.25,-0.33 -0.43,-0.69 -0.54,-1.08 c 0.89,-0.45 1.84,-0.8 2.84,-1.06 c -0.07,-0.4 -0.13,-0.8 -0.19,-1.2 c 1.24,-1.08 2.47,-2.16 3.71,-3.24 c 1.11,-1.33 0.95,-3.36 3.05,-2.29 c 2.48,-1.7 3.76,-1.75 5.03,-4.68 c 3.66,-1.91 6.64,-4.58 8.94,-8.01 c 2.58,-0.82 3.58,-2.82 5.47,-4.53 c 1.19,-0.82 2.08,-0.55 2.68,0.82 Z"/></g>
<g><path fill="#18726c" d="M 76.99,265.65 c -0.35,-1.56 -0.3,-3.11 0.13,-4.63 c 19.07,7.57 30.24,13.68 50.87,6.44 c 18.54,-7.24 37.94,-11.94 56.44,-19.53 c 22.88,-7.15 45.31,-15.19 67.87,-23.23 c 21.8,-9.35 40.4,-32.34 57.47,-48.56 c 4.44,-4.89 8.37,-12.49 13.78,-16.18 c 0.11,-0.57 -0.1,-1 -0.64,-1.28 c 0.58,-1.23 1.3,-1.32 2.18,-0.29 c -0.23,1 1.15,2.9 0.5,3.64 c -1.57,1.43 -3.1,2.91 -4.59,4.46 c -1.57,1.81 -2.96,3.75 -4.19,5.81 c -8.33,9.6 -16.45,19.63 -26.55,27.49 c -6.28,6.03 -12.62,11.99 -19,17.88 c -9.69,6.36 -18.94,10.74 -29.96,14.35 c -10.4,6.05 -21.97,7.2 -32.87,11.83 c -19.99,5.36 -38.91,13.85 -58.89,19.28 c -12.45,4.34 -29.76,12.35 -42.93,10.44 c -3.18,-0.77 -18.72,-3.97 -20.21,-5.54 c -1.22,-3.62 -1.03,-0.57 -3.92,-0.88 c -1.72,-0.83 -3.55,-1.33 -5.49,-1.5 Z"/></g>
<g><path fill="#224e77" stroke="#224e77" stroke-width="0.5" d="M 333,124.26 c 0.52,0.46 0.62,1 0.28,1.61 c -3.01,7.55 -8.38,13.28 -13.45,19.49 c -4.18,3.8 -8.38,7.58 -12.58,11.34 c -6.92,4.66 -13.61,9.62 -20.08,14.87 c -5.32,3.34 -10.62,6.72 -15.88,10.15 c -3.6,1.85 -7.23,3.66 -10.88,5.41 c -3.48,2.15 -6.97,4.27 -10.47,6.37 c -7.52,3.47 -15.08,6.86 -22.67,10.17 c -1.98,0.61 -3.91,1.34 -5.8,2.19 c -2.36,0.34 -4.67,0.9 -6.93,1.67 c -1.03,0.01 -2.04,0.16 -3.03,0.47 c -2.01,0.01 -4.01,0 -6.02,-0.02 c -8.92,-0.97 -17.05,-4.86 -25.83,-6.35 c -4.44,-1.41 -8.81,-3 -13.12,-4.77 c -7.37,-1.96 -14.34,-4.76 -21.83,-6.27 c -5.06,-2.16 -10.35,-3.56 -15.67,-4.87 c -3.15,-1.31 -6.35,-2.51 -9.6,-3.57 c -1.44,-0.13 -2.82,-0.46 -4.17,-0.98 c -6.66,-0.91 -13.3,-1.93 -19.92,-3.06 c -2.25,-0.26 -4.47,-0.12 -6.65,0.43 c -0.89,1.41 -1.91,1.47 -3.05,0.17 c 0.43,-1.95 0.67,-3.92 0.7,-5.92 c 0.43,0 0.7,0.22 0.81,0.65 c -0.02,0.8 0.11,1.57 0.38,2.3 c 0.36,-0.43 0.75,-0.84 1.16,-1.22 c 10.42,-1.02 22.22,3.39 32.71,4.56 c 22.97,7.1 45.88,14.41 68.73,21.91 c 19.69,4.72 30.33,2.84 48.14,-6.39 c 33.89,-17.13 73.16,-36.96 93.67,-70.28 c 0.33,-0.27 0.68,-0.29 1.05,-0.06 Z"/></g>
<g><path fill="#193145" stroke="#193145" stroke-width="0.5" d="M 361.84,88.76 c 1.19,0.65 2.3,1.4 3.35,2.25 c -5.3,13.92 -10.89,27.71 -16.79,41.38 c -2.61,-0.69 -6.03,5.21 -7.64,6.9 c -6.78,7.61 -11.63,14.87 -21.03,19.56 c -1.2,0.09 -3.27,0.47 -1.93,-1.41 c 16.24,-16.93 26.53,-37.42 38.23,-57.45 c 0.17,-0.54 0.19,-1.1 0.06,-1.66 c 1.26,-0.68 2.52,-1.39 3.77,-2.14 c 1.34,-1.17 2.01,-2.65 2,-4.43 c -0.15,-0.85 -1.69,-2.95 -0.02,-3 Z"/></g>
<g><path fill="#245682" d="M 353.02,85.02 c 1.24,0.21 2.63,2.04 1.92,3.25 c -1.01,0.28 -1.95,0.7 -2.81,1.24 c 0.19,0.57 0.32,1.15 0.38,1.74 c -4.13,10.38 -13.21,23.46 -19.51,33.01 c -0.37,-0.23 -0.72,-0.21 -1.05,0.06 c -20.51,33.32 -59.78,53.15 -93.67,70.28 c -17.81,9.23 -28.45,11.11 -48.14,6.39 c -22.85,-7.5 -45.76,-14.81 -68.73,-21.91 c -10.49,-1.17 -22.29,-5.58 -32.71,-4.56 c -0.41,0.38 -0.8,0.79 -1.16,1.22 c -0.27,-0.73 -0.4,-1.5 -0.38,-2.3 c -0.11,-0.43 -0.38,-0.65 -0.81,-0.65 c -0.07,-0.25 -0.15,-0.51 -0.23,-0.76 c -0.38,-2.11 1.16,-4.31 1.92,-6.2 c 1.61,0.24 0.41,2.28 1.5,3.3 c 3.75,3.17 12.47,2.55 17.04,3.77 c 16.25,2.72 31.26,8.29 47.05,12.67 c 18.54,4.77 47,19.4 65.74,13.27 c 31.5,-11.49 73.77,-35.67 97.84,-59.15 c 11.12,-10.99 17.69,-26.57 26.43,-39.44 c 2.38,-4.53 5.46,-12.39 9.38,-15.23 Z"/></g>
<g><path fill="#1e4464" stroke="#1e4464" stroke-width="0.5" d="M 353.04,82.94 c 1.26,0.91 2.61,1.64 4.06,2.2 c 1.57,1.22 3.15,2.43 4.74,3.62 c -1.67,0.05 -0.13,2.15 0.02,3 c 0.01,1.78 -0.66,3.26 -2,4.43 c -1.25,0.75 -2.51,1.46 -3.77,2.14 c 0.13,0.56 0.11,1.12 -0.06,1.66 c -11.7,20.03 -21.99,40.52 -38.23,57.45 c -1.34,1.88 0.73,1.5 1.93,1.41 c 0.13,0.29 0.26,0.58 0.38,0.87 c -4.18,2.48 -8.26,5.12 -12.23,7.93 c -10.02,6.71 -20.03,13.45 -30.01,20.23 c -9.91,5.12 -54.03,27.96 -62.19,29.8 c -32.13,-10.16 -64.3,-20.23 -96.49,-30.24 c -11.19,-1.96 -24.67,-3.05 -36.18,-4.27 c -0.2,-1.9 1.68,-3.6 0.31,-5.28 c 0.93,-1.93 1.64,-3.94 2.13,-6.02 c 0.22,0.05 0.45,0.11 0.67,0.16 c 0.08,0.25 0.16,0.51 0.23,0.76 c -0.03,2 -0.27,3.97 -0.7,5.92 c 1.14,1.3 2.16,1.24 3.05,-0.17 c 2.18,-0.55 4.4,-0.69 6.65,-0.43 c 6.62,1.13 13.26,2.15 19.92,3.06 c 1.35,0.52 2.73,0.85 4.17,0.98 c 3.25,1.06 6.45,2.26 9.6,3.57 c 5.32,1.31 10.61,2.71 15.67,4.87 c 7.49,1.51 14.46,4.31 21.83,6.27 c 4.31,1.77 8.68,3.36 13.12,4.77 c 8.78,1.49 16.91,5.38 25.83,6.35 c 2.01,0.02 4.01,0.03 6.02,0.02 c 0.99,-0.31 2,-0.46 3.03,-0.47 c 2.26,-0.77 4.57,-1.33 6.93,-1.67 c 1.89,-0.85 3.82,-1.58 5.8,-2.19 c 7.59,-3.31 15.15,-6.7 22.67,-10.17 c 3.5,-2.1 6.99,-4.22 10.47,-6.37 c 3.65,-1.75 7.28,-3.56 10.88,-5.41 c 5.26,-3.43 10.56,-6.81 15.88,-10.15 c 6.47,-5.25 13.16,-10.21 20.08,-14.87 c 4.2,-3.76 8.4,-7.54 12.58,-11.34 c 5.07,-6.21 10.44,-11.94 13.45,-19.49 c 0.34,-0.61 0.24,-1.15 -0.28,-1.61 c 6.3,-9.55 15.38,-22.63 19.51,-33.01 c -0.06,-0.59 -0.19,-1.17 -0.38,-1.74 c 0.86,-0.54 1.8,-0.96 2.81,-1.24 c 0.71,-1.21 -0.68,-3.04 -1.92,-3.25 c -0.13,-0.69 -0.12,-1.39 0.02,-2.08 Z"/></g>
<g><path fill="#245e8d" d="M 347.67,80.16 c 0.44,0.04 0.88,0.08 1.32,0.12 c 1.45,0.72 2.8,1.6 4.05,2.66 c -0.14,0.69 -0.15,1.39 -0.02,2.08 c -3.92,2.84 -7,10.7 -9.38,15.23 c -8.74,12.87 -15.31,28.45 -26.43,39.44 c -24.07,23.48 -66.34,47.66 -97.84,59.15 c -18.74,6.13 -47.2,-8.5 -65.74,-13.27 c -15.79,-4.38 -30.8,-9.95 -47.05,-12.67 c -4.57,-1.22 -13.29,-0.6 -17.04,-3.77 c -1.09,-1.02 0.11,-3.06 -1.5,-3.3 c 0.37,-1.34 0.9,-2.61 1.61,-3.8 c 0.14,-0.33 0.31,-0.66 0.48,-0.99 c 0.41,-0.37 0.82,-0.71 1.24,-1.02 c 0.49,0.99 0.4,1.95 -0.27,2.89 c 0.68,2.62 2.54,2.71 4.68,3.77 c 9.03,1.84 18.02,3.87 26.96,6.11 c 9.74,2.53 18.77,6.45 28.76,8.2 c 4.97,1.78 9.93,3.59 14.88,5.44 c 8.72,2.65 17.43,5.36 26.11,8.13 c 14.87,4.56 27.83,1.93 41.25,-5.21 c 10.52,-5.62 21.15,-11.04 31.88,-16.23 c 20.26,-13.41 40.69,-24.4 56.41,-43.55 c 6.84,-9.03 11.91,-18.88 16.93,-28.98 c 3.2,-5.61 9.26,-13.76 8.71,-20.43 Z"/></g>
<g><path fill="#222226" d="M 117.58,664.41 c 0.85,-0.21 1.71,-0.4 2.57,-0.58 c 11.59,7.36 16.78,-16.57 5.86,-21.4 c -4.47,-0.54 -7.39,1.35 -8.74,5.68 c -0.73,-0.03 -1.46,-0.06 -2.19,-0.07 c 1.07,-5.12 4.2,-7.76 9.4,-7.93 c 9.55,0.31 10.25,11.02 9.24,18.24 c -1,8.3 -10.23,12.05 -16.14,6.06 Z M 212.17,645.84 c -0.78,0 -1.54,0.06 -2.31,0.18 c -4.63,-6.99 -13.07,-3.46 -13.52,4.52 c -0.1,5.33 -0.75,11.17 4.76,14.08 c -0.98,0.12 -1.71,0.6 -2.19,1.43 c -5.59,-3.41 -5.12,-10.89 -4.82,-16.54 c 1.4,-10.84 14.27,-13.01 18.08,-3.67 Z M 235.64,654 c -1.8,-18.13 20.18,-17.5 18.24,-4.62 c -0.57,0.6 -1.09,0.56 -1.56,-0.14 c -0.11,-2.81 -1.35,-4.94 -3.73,-6.36 c -10.05,-3.33 -11.38,7.57 -10.55,14.62 c 0.84,7.25 8.35,10.78 13.19,4.44 c 0.74,-2.17 1.44,-4.96 -0.81,-6.48 c -1.69,-0.12 -3.38,-0.18 -5.07,-0.2 c -0.72,-0.78 -0.62,-1.44 0.3,-1.99 c 2.51,-0.57 4.99,-0.48 7.43,0.26 c 2.2,1.98 0.79,9.18 1.13,12.04 c -0.45,2.42 -1.15,0.87 -1.88,0.04 c -2.22,0.75 -4.5,1.28 -6.83,1.58 c -7.73,0.29 -10.33,-6.54 -9.86,-13.19 Z M 157.04,646 c 0.09,-1.68 -0.36,-4.25 1.61,-5.02 c 8.46,-1.71 16.28,0.15 13.48,10.56 c -0.76,2.33 -2.34,3.79 -4.72,4.38 c -2.42,-0.06 -4.76,0.28 -7.04,1.02 c -0.58,3.3 -1.31,6.57 -2.18,9.81 c -0.4,-1.73 -0.77,-3.49 -1.13,-5.25 c 0.02,-5.17 0.01,-10.33 -0.02,-15.5 Z M 293.21,643.75 c -0.5,0.38 -0.99,0.77 -1.47,1.18 c -3.11,-2.78 -7.05,-2.74 -10.88,-1.59 c -1.29,2.09 -0.74,4.81 -0.85,7.17 c 0.25,5.95 9.32,3.51 12.01,0.39 c 0.23,0.79 0.35,1.6 0.34,2.43 c -0.55,0.45 -0.97,0.99 -1.28,1.62 c 0.01,3.76 2.21,6.65 3.56,10.02 c 0.21,1.98 -0.43,2.31 -1.94,0.99 c -1.51,-3.14 -3.12,-6.23 -4.83,-9.27 c -1.53,-1.4 -6.37,-2.09 -7.13,0.37 c -0.31,3.26 -0.87,6.48 -1.68,9.65 c -2.06,-5.65 -0.65,-15.94 -1.1,-22.22 c -0.16,-1.98 0.69,-3.23 2.57,-3.75 c 4.32,0.07 9.95,-1.3 12.68,3.01 Z M 354.87,645 c -0.28,-1.76 0.31,-3.11 1.76,-4.03 c 3.31,-0.33 6.63,-0.44 9.96,-0.33 c 1.42,-0.03 2.18,1.54 0.77,2.11 c -2.94,0.63 -7.51,-0.65 -9.97,1.08 c -0.82,2.34 -1.21,5.82 0.48,7.82 c 2.8,0.45 5.62,0.72 8.47,0.82 c 0.68,0.04 1.14,0.37 1.38,0.98 c -0.53,0.72 -1.26,1.07 -2.19,1.05 c -2.77,-0.02 -5.51,0.07 -8.22,0.27 c -0.73,3.9 0.24,8.22 -1.29,11.95 c -2.06,-6.68 -0.68,-14.69 -1.15,-21.72 Z M 159.35,647.98 c -0.05,1.82 0.24,3.59 0.87,5.3 c 0.59,0.63 1.34,0.95 2.22,0.95 c 12.14,1.17 9.97,-15.4 -1.8,-11.11 c -0.83,1.51 -1.25,3.13 -1.29,4.86 Z"/></g>
</svg>
